<?xml version="1.0" encoding="utf-8" standalone="no"?>
<!DOCTYPE svg PUBLIC "-//W3C//DTD SVG 1.1//EN"
  "http://www.w3.org/Graphics/SVG/1.1/DTD/svg11.dtd">
<svg xmlns:xlink="http://www.w3.org/1999/xlink" width="1069.2pt" height="542.88pt" viewBox="0 0 1069.2 542.88" xmlns="http://www.w3.org/2000/svg" version="1.1">
 <metadata>
  <rdf:RDF xmlns:dc="http://purl.org/dc/elements/1.1/" xmlns:cc="http://creativecommons.org/ns#" xmlns:rdf="http://www.w3.org/1999/02/22-rdf-syntax-ns#">
   <cc:Work>
    <dc:type rdf:resource="http://purl.org/dc/dcmitype/StillImage"/>
    <dc:date>2024-05-23T17:21:45.527296</dc:date>
    <dc:format>image/svg+xml</dc:format>
    <dc:creator>
     <cc:Agent>
      <dc:title>Matplotlib v3.8.4, https://matplotlib.org/</dc:title>
     </cc:Agent>
    </dc:creator>
   </cc:Work>
  </rdf:RDF>
 </metadata>
 <defs>
  <style type="text/css">*{stroke-linejoin: round; stroke-linecap: butt}</style>
 </defs>
 <g id="figure_1">
  <g id="patch_1">
   <path d="M 0 542.88 
L 1069.2 542.88 
L 1069.2 0 
L 0 0 
z
" style="fill: #ffffff"/>
  </g>
  <g id="axes_1">
   <g id="patch_2">
    <path d="M 133.65 483.1632 
L 962.28 483.1632 
L 962.28 65.1456 
L 133.65 65.1456 
z
" style="fill: #ffffff"/>
   </g>
   <g id="matplotlib.axis_1">
    <g id="xtick_1">
     <g id="line2d_1">
      <defs>
       <path id="m20d4feecbd" d="M 0 0 
L 0 3.5 
" style="stroke: #000000; stroke-width: 0.8"/>
      </defs>
      <g>
       <use xlink:href="#m20d4feecbd" x="171.315" y="483.1632" style="stroke: #000000; stroke-width: 0.8"/>
      </g>
     </g>
     <g id="text_1">
      <!-- 0 -->
      <g transform="translate(168.13375 497.761638) scale(0.1 -0.1)">
       <defs>
        <path id="DejaVuSans-30" d="M 2034 4250 
Q 1547 4250 1301 3770 
Q 1056 3291 1056 2328 
Q 1056 1369 1301 889 
Q 1547 409 2034 409 
Q 2525 409 2770 889 
Q 3016 1369 3016 2328 
Q 3016 3291 2770 3770 
Q 2525 4250 2034 4250 
z
M 2034 4750 
Q 2819 4750 3233 4129 
Q 3647 3509 3647 2328 
Q 3647 1150 3233 529 
Q 2819 -91 2034 -91 
Q 1250 -91 836 529 
Q 422 1150 422 2328 
Q 422 3509 836 4129 
Q 1250 4750 2034 4750 
z
" transform="scale(0.015625)"/>
       </defs>
       <use xlink:href="#DejaVuSans-30"/>
      </g>
     </g>
    </g>
    <g id="xtick_2">
     <g id="line2d_2">
      <g>
       <use xlink:href="#m20d4feecbd" x="344.606925" y="483.1632" style="stroke: #000000; stroke-width: 0.8"/>
      </g>
     </g>
     <g id="text_2">
      <!-- 1000 -->
      <g transform="translate(331.881925 497.761638) scale(0.1 -0.1)">
       <defs>
        <path id="DejaVuSans-31" d="M 794 531 
L 1825 531 
L 1825 4091 
L 703 3866 
L 703 4441 
L 1819 4666 
L 2450 4666 
L 2450 531 
L 3481 531 
L 3481 0 
L 794 0 
L 794 531 
z
" transform="scale(0.015625)"/>
       </defs>
       <use xlink:href="#DejaVuSans-31"/>
       <use xlink:href="#DejaVuSans-30" x="63.623047"/>
       <use xlink:href="#DejaVuSans-30" x="127.246094"/>
       <use xlink:href="#DejaVuSans-30" x="190.869141"/>
      </g>
     </g>
    </g>
    <g id="xtick_3">
     <g id="line2d_3">
      <g>
       <use xlink:href="#m20d4feecbd" x="517.898851" y="483.1632" style="stroke: #000000; stroke-width: 0.8"/>
      </g>
     </g>
     <g id="text_3">
      <!-- 2000 -->
      <g transform="translate(505.173851 497.761638) scale(0.1 -0.1)">
       <defs>
        <path id="DejaVuSans-32" d="M 1228 531 
L 3431 531 
L 3431 0 
L 469 0 
L 469 531 
Q 828 903 1448 1529 
Q 2069 2156 2228 2338 
Q 2531 2678 2651 2914 
Q 2772 3150 2772 3378 
Q 2772 3750 2511 3984 
Q 2250 4219 1831 4219 
Q 1534 4219 1204 4116 
Q 875 4013 500 3803 
L 500 4441 
Q 881 4594 1212 4672 
Q 1544 4750 1819 4750 
Q 2544 4750 2975 4387 
Q 3406 4025 3406 3419 
Q 3406 3131 3298 2873 
Q 3191 2616 2906 2266 
Q 2828 2175 2409 1742 
Q 1991 1309 1228 531 
z
" transform="scale(0.015625)"/>
       </defs>
       <use xlink:href="#DejaVuSans-32"/>
       <use xlink:href="#DejaVuSans-30" x="63.623047"/>
       <use xlink:href="#DejaVuSans-30" x="127.246094"/>
       <use xlink:href="#DejaVuSans-30" x="190.869141"/>
      </g>
     </g>
    </g>
    <g id="xtick_4">
     <g id="line2d_4">
      <g>
       <use xlink:href="#m20d4feecbd" x="691.190776" y="483.1632" style="stroke: #000000; stroke-width: 0.8"/>
      </g>
     </g>
     <g id="text_4">
      <!-- 3000 -->
      <g transform="translate(678.465776 497.761638) scale(0.1 -0.1)">
       <defs>
        <path id="DejaVuSans-33" d="M 2597 2516 
Q 3050 2419 3304 2112 
Q 3559 1806 3559 1356 
Q 3559 666 3084 287 
Q 2609 -91 1734 -91 
Q 1441 -91 1130 -33 
Q 819 25 488 141 
L 488 750 
Q 750 597 1062 519 
Q 1375 441 1716 441 
Q 2309 441 2620 675 
Q 2931 909 2931 1356 
Q 2931 1769 2642 2001 
Q 2353 2234 1838 2234 
L 1294 2234 
L 1294 2753 
L 1863 2753 
Q 2328 2753 2575 2939 
Q 2822 3125 2822 3475 
Q 2822 3834 2567 4026 
Q 2313 4219 1838 4219 
Q 1578 4219 1281 4162 
Q 984 4106 628 3988 
L 628 4550 
Q 988 4650 1302 4700 
Q 1616 4750 1894 4750 
Q 2613 4750 3031 4423 
Q 3450 4097 3450 3541 
Q 3450 3153 3228 2886 
Q 3006 2619 2597 2516 
z
" transform="scale(0.015625)"/>
       </defs>
       <use xlink:href="#DejaVuSans-33"/>
       <use xlink:href="#DejaVuSans-30" x="63.623047"/>
       <use xlink:href="#DejaVuSans-30" x="127.246094"/>
       <use xlink:href="#DejaVuSans-30" x="190.869141"/>
      </g>
     </g>
    </g>
    <g id="xtick_5">
     <g id="line2d_5">
      <g>
       <use xlink:href="#m20d4feecbd" x="864.482702" y="483.1632" style="stroke: #000000; stroke-width: 0.8"/>
      </g>
     </g>
     <g id="text_5">
      <!-- 4000 -->
      <g transform="translate(851.757702 497.761638) scale(0.1 -0.1)">
       <defs>
        <path id="DejaVuSans-34" d="M 2419 4116 
L 825 1625 
L 2419 1625 
L 2419 4116 
z
M 2253 4666 
L 3047 4666 
L 3047 1625 
L 3713 1625 
L 3713 1100 
L 3047 1100 
L 3047 0 
L 2419 0 
L 2419 1100 
L 313 1100 
L 313 1709 
L 2253 4666 
z
" transform="scale(0.015625)"/>
       </defs>
       <use xlink:href="#DejaVuSans-34"/>
       <use xlink:href="#DejaVuSans-30" x="63.623047"/>
       <use xlink:href="#DejaVuSans-30" x="127.246094"/>
       <use xlink:href="#DejaVuSans-30" x="190.869141"/>
      </g>
     </g>
    </g>
   </g>
   <g id="matplotlib.axis_2">
    <g id="ytick_1">
     <g id="line2d_6">
      <defs>
       <path id="mb17b5527bc" d="M 0 0 
L -3.5 0 
" style="stroke: #000000; stroke-width: 0.8"/>
      </defs>
      <g>
       <use xlink:href="#mb17b5527bc" x="133.65" y="464.1624" style="stroke: #000000; stroke-width: 0.8"/>
      </g>
     </g>
     <g id="text_6">
      <!-- 0 -->
      <g transform="translate(120.2875 467.961619) scale(0.1 -0.1)">
       <use xlink:href="#DejaVuSans-30"/>
      </g>
     </g>
    </g>
    <g id="ytick_2">
     <g id="line2d_7">
      <g>
       <use xlink:href="#mb17b5527bc" x="133.65" y="412.112516" style="stroke: #000000; stroke-width: 0.8"/>
      </g>
     </g>
     <g id="text_7">
      <!-- 250 -->
      <g transform="translate(107.5625 415.911735) scale(0.1 -0.1)">
       <defs>
        <path id="DejaVuSans-35" d="M 691 4666 
L 3169 4666 
L 3169 4134 
L 1269 4134 
L 1269 2991 
Q 1406 3038 1543 3061 
Q 1681 3084 1819 3084 
Q 2600 3084 3056 2656 
Q 3513 2228 3513 1497 
Q 3513 744 3044 326 
Q 2575 -91 1722 -91 
Q 1428 -91 1123 -41 
Q 819 9 494 109 
L 494 744 
Q 775 591 1075 516 
Q 1375 441 1709 441 
Q 2250 441 2565 725 
Q 2881 1009 2881 1497 
Q 2881 1984 2565 2268 
Q 2250 2553 1709 2553 
Q 1456 2553 1204 2497 
Q 953 2441 691 2322 
L 691 4666 
z
" transform="scale(0.015625)"/>
       </defs>
       <use xlink:href="#DejaVuSans-32"/>
       <use xlink:href="#DejaVuSans-35" x="63.623047"/>
       <use xlink:href="#DejaVuSans-30" x="127.246094"/>
      </g>
     </g>
    </g>
    <g id="ytick_3">
     <g id="line2d_8">
      <g>
       <use xlink:href="#mb17b5527bc" x="133.65" y="360.062632" style="stroke: #000000; stroke-width: 0.8"/>
      </g>
     </g>
     <g id="text_8">
      <!-- 500 -->
      <g transform="translate(107.5625 363.861851) scale(0.1 -0.1)">
       <use xlink:href="#DejaVuSans-35"/>
       <use xlink:href="#DejaVuSans-30" x="63.623047"/>
       <use xlink:href="#DejaVuSans-30" x="127.246094"/>
      </g>
     </g>
    </g>
    <g id="ytick_4">
     <g id="line2d_9">
      <g>
       <use xlink:href="#mb17b5527bc" x="133.65" y="308.012748" style="stroke: #000000; stroke-width: 0.8"/>
      </g>
     </g>
     <g id="text_9">
      <!-- 750 -->
      <g transform="translate(107.5625 311.811967) scale(0.1 -0.1)">
       <defs>
        <path id="DejaVuSans-37" d="M 525 4666 
L 3525 4666 
L 3525 4397 
L 1831 0 
L 1172 0 
L 2766 4134 
L 525 4134 
L 525 4666 
z
" transform="scale(0.015625)"/>
       </defs>
       <use xlink:href="#DejaVuSans-37"/>
       <use xlink:href="#DejaVuSans-35" x="63.623047"/>
       <use xlink:href="#DejaVuSans-30" x="127.246094"/>
      </g>
     </g>
    </g>
    <g id="ytick_5">
     <g id="line2d_10">
      <g>
       <use xlink:href="#mb17b5527bc" x="133.65" y="255.962864" style="stroke: #000000; stroke-width: 0.8"/>
      </g>
     </g>
     <g id="text_10">
      <!-- 1000 -->
      <g transform="translate(101.2 259.762083) scale(0.1 -0.1)">
       <use xlink:href="#DejaVuSans-31"/>
       <use xlink:href="#DejaVuSans-30" x="63.623047"/>
       <use xlink:href="#DejaVuSans-30" x="127.246094"/>
       <use xlink:href="#DejaVuSans-30" x="190.869141"/>
      </g>
     </g>
    </g>
    <g id="ytick_6">
     <g id="line2d_11">
      <g>
       <use xlink:href="#mb17b5527bc" x="133.65" y="203.91298" style="stroke: #000000; stroke-width: 0.8"/>
      </g>
     </g>
     <g id="text_11">
      <!-- 1250 -->
      <g transform="translate(101.2 207.712199) scale(0.1 -0.1)">
       <use xlink:href="#DejaVuSans-31"/>
       <use xlink:href="#DejaVuSans-32" x="63.623047"/>
       <use xlink:href="#DejaVuSans-35" x="127.246094"/>
       <use xlink:href="#DejaVuSans-30" x="190.869141"/>
      </g>
     </g>
    </g>
    <g id="ytick_7">
     <g id="line2d_12">
      <g>
       <use xlink:href="#mb17b5527bc" x="133.65" y="151.863096" style="stroke: #000000; stroke-width: 0.8"/>
      </g>
     </g>
     <g id="text_12">
      <!-- 1500 -->
      <g transform="translate(101.2 155.662315) scale(0.1 -0.1)">
       <use xlink:href="#DejaVuSans-31"/>
       <use xlink:href="#DejaVuSans-35" x="63.623047"/>
       <use xlink:href="#DejaVuSans-30" x="127.246094"/>
       <use xlink:href="#DejaVuSans-30" x="190.869141"/>
      </g>
     </g>
    </g>
    <g id="ytick_8">
     <g id="line2d_13">
      <g>
       <use xlink:href="#mb17b5527bc" x="133.65" y="99.813212" style="stroke: #000000; stroke-width: 0.8"/>
      </g>
     </g>
     <g id="text_13">
      <!-- 1750 -->
      <g transform="translate(101.2 103.612431) scale(0.1 -0.1)">
       <use xlink:href="#DejaVuSans-31"/>
       <use xlink:href="#DejaVuSans-37" x="63.623047"/>
       <use xlink:href="#DejaVuSans-35" x="127.246094"/>
       <use xlink:href="#DejaVuSans-30" x="190.869141"/>
      </g>
     </g>
    </g>
   </g>
   <g id="line2d_14">
    <path d="M 171.315 464.1624 
L 183.618727 464.092208 
L 183.965311 463.857532 
L 184.138602 463.920523 
L 184.485186 463.812624 
L 184.83177 464.002525 
L 185.005062 463.844865 
L 185.178354 463.253198 
L 185.351646 463.361427 
L 185.69823 463.918213 
L 186.044814 461.824735 
L 186.218106 462.348448 
L 186.391398 462.219542 
L 186.564689 462.583707 
L 186.737981 462.604908 
L 187.257857 460.602927 
L 187.431149 460.622845 
L 187.604441 464.021122 
L 187.951025 464.115709 
L 188.644193 464.108734 
L 188.817484 463.87681 
L 188.990776 463.965661 
L 189.510652 463.745263 
L 189.683944 463.853166 
L 190.030528 463.653057 
L 190.20382 463.62817 
L 190.377112 463.719365 
L 190.550404 463.668851 
L 190.896988 464.038482 
L 191.243571 464.096134 
L 191.936739 463.96435 
L 192.283323 464.134673 
L 192.629907 464.021246 
L 192.976491 464.146031 
L 193.149783 463.665116 
L 193.323075 463.996179 
L 193.496366 464.000276 
L 193.669658 463.467468 
L 194.016242 464.106896 
L 194.189534 463.792731 
L 194.362826 463.755539 
L 194.536118 463.564375 
L 194.70941 463.666228 
L 194.882702 464.003849 
L 195.055994 463.995418 
L 195.402578 463.771566 
L 195.922453 463.668396 
L 196.095745 463.220668 
L 196.269037 463.402566 
L 196.442329 463.264216 
L 196.615621 463.296903 
L 196.788913 463.06754 
L 196.962205 463.038239 
L 197.135497 463.146026 
L 197.482081 463.653588 
L 198.175248 463.720688 
L 198.34854 462.751605 
L 198.521832 462.895358 
L 198.695124 463.532257 
L 198.868416 463.698223 
L 199.041708 463.540644 
L 199.215 463.571695 
L 199.388292 463.425517 
L 199.561584 463.553285 
L 199.734876 463.239245 
L 200.08146 463.675648 
L 200.428043 463.662174 
L 200.601335 463.867618 
L 200.947919 463.651884 
L 201.121211 463.523341 
L 201.294503 463.898961 
L 201.814379 463.708001 
L 202.160963 463.996711 
L 202.85413 464.084372 
L 203.547298 463.889984 
L 203.893882 463.993842 
L 204.240466 464.132109 
L 205.800093 464.147586 
L 206.666553 464.146815 
L 207.013137 463.93857 
L 207.879596 463.977269 
L 208.052888 463.770767 
L 208.399472 464.003961 
L 208.572764 464.013863 
L 208.746056 463.651479 
L 208.919348 463.980664 
L 209.09264 463.503441 
L 209.265932 464.021121 
L 209.612516 463.835227 
L 209.785807 463.834374 
L 210.132391 464.031636 
L 210.478975 464.13361 
L 210.998851 463.948752 
L 211.345435 464.072511 
L 211.518727 464.102334 
L 211.692019 463.931538 
L 211.865311 464.025308 
L 212.211894 463.864156 
L 212.385186 463.899176 
L 213.251646 463.542272 
L 213.59823 463.927868 
L 213.944814 464.132565 
L 215.157857 464.126227 
L 215.504441 463.680231 
L 215.677733 463.554454 
L 215.851025 463.114935 
L 216.024317 463.332018 
L 216.197609 462.802031 
L 216.370901 463.336765 
L 216.544193 462.423951 
L 216.717484 462.460693 
L 216.890776 463.322244 
L 217.064068 463.144773 
L 217.23736 463.131611 
L 217.410652 463.685699 
L 217.583944 463.198887 
L 217.757236 461.567274 
L 217.930528 463.861387 
L 218.450404 464.101043 
L 218.796988 463.960827 
L 219.143571 464.071915 
L 219.316863 463.973682 
L 219.490155 464.080433 
L 219.663447 463.535151 
L 220.010031 464.012052 
L 220.356615 463.849601 
L 220.703199 463.930165 
L 221.049783 463.904793 
L 221.569658 463.985747 
L 222.262826 464.100709 
L 222.782702 464.158967 
L 223.822453 464.107311 
L 223.995745 463.942855 
L 224.169037 463.223649 
L 224.342329 463.840553 
L 224.515621 464.009249 
L 224.688913 463.764394 
L 224.862205 463.782696 
L 225.208789 464.063379 
L 225.382081 464.073351 
L 225.555373 463.960583 
L 225.901957 464.092508 
L 226.075248 463.963737 
L 226.24854 463.678657 
L 226.421832 462.518808 
L 226.595124 463.056581 
L 226.768416 459.760867 
L 226.941708 463.674329 
L 227.115 464.028223 
L 227.634876 464.080389 
L 227.808168 463.486583 
L 228.154752 463.906671 
L 228.328043 464.123006 
L 229.194503 464.042817 
L 229.714379 463.90238 
L 230.060963 463.892698 
L 230.407547 463.718886 
L 230.75413 463.840677 
L 231.274006 463.73582 
L 231.62059 463.730937 
L 231.793882 463.670732 
L 232.48705 463.849675 
L 233.526801 463.865329 
L 234.046677 464.075286 
L 235.779596 464.028452 
L 236.299472 464.058231 
L 236.99264 464.010187 
L 237.685807 463.749743 
L 237.859099 463.694848 
L 238.032391 463.286141 
L 238.378975 463.353155 
L 239.072143 463.882721 
L 239.245435 463.829813 
L 239.938602 464.111952 
L 240.285186 464.098152 
L 240.805062 464.13527 
L 241.151646 463.93799 
L 241.671522 463.825721 
L 241.844814 463.998639 
L 242.018106 463.842922 
L 242.364689 464.07165 
L 242.537981 463.957781 
L 242.884565 464.13011 
L 243.231149 464.041572 
L 243.577733 464.046368 
L 244.617484 464.115409 
L 245.483944 464.139379 
L 247.563447 464.155441 
L 249.816242 464.05546 
L 249.989534 463.849641 
L 250.162826 463.958197 
L 250.336118 463.881131 
L 250.50941 464.094062 
L 250.682702 463.889508 
L 251.549161 464.144682 
L 251.895745 464.078908 
L 252.069037 464.129573 
L 252.242329 464.002765 
L 252.762205 464.064302 
L 255.361584 464.124109 
L 256.747919 464.016345 
L 256.921211 464.102948 
L 257.267795 464.013063 
L 257.441087 463.788164 
L 257.614379 463.891363 
L 257.787671 463.84252 
L 257.960963 463.109164 
L 258.307547 463.712258 
L 258.480839 463.699433 
L 258.65413 463.339508 
L 258.827422 463.493524 
L 259.000714 463.35083 
L 259.174006 464.003186 
L 259.52059 464.12546 
L 260.040466 464.091553 
L 260.38705 463.970202 
L 260.733634 462.776242 
L 261.080217 463.801835 
L 261.253509 463.201906 
L 261.426801 463.03378 
L 261.600093 463.349648 
L 261.946677 462.985314 
L 262.119969 463.640229 
L 262.466553 463.533229 
L 262.813137 462.975298 
L 263.15972 463.689393 
L 263.333012 463.850432 
L 263.679596 463.839736 
L 264.546056 463.90159 
L 265.065932 463.599525 
L 265.239224 463.737046 
L 265.759099 463.573059 
L 265.932391 463.647941 
L 266.105683 463.33505 
L 266.452267 463.648515 
L 266.625559 463.199183 
L 266.798851 463.507951 
L 266.972143 463.444521 
L 267.318727 462.735851 
L 267.492019 462.900784 
L 267.838602 463.5951 
L 268.185186 463.087669 
L 268.358478 463.02549 
L 268.53177 463.539813 
L 268.705062 463.483541 
L 268.878354 463.167842 
L 269.051646 463.38966 
L 269.224938 463.307905 
L 269.39823 462.935558 
L 269.571522 463.329536 
L 269.744814 463.190789 
L 269.918106 463.719393 
L 270.091398 463.73811 
L 270.264689 463.490226 
L 270.611273 463.755963 
L 270.957857 463.502103 
L 271.131149 463.056971 
L 271.304441 463.067064 
L 271.477733 463.188938 
L 271.997609 464.061485 
L 272.344193 464.129308 
L 274.943571 464.158837 
L 275.463447 464.026676 
L 275.810031 463.567337 
L 275.983323 463.887171 
L 276.156615 463.54416 
L 276.329907 464.038799 
L 276.849783 464.114646 
L 277.196366 463.640636 
L 277.369658 464.101691 
L 277.54295 464.051885 
L 277.716242 463.196779 
L 277.889534 463.167472 
L 278.062826 463.877266 
L 278.236118 463.666356 
L 278.929286 464.111558 
L 280.142329 463.984661 
L 280.315621 463.701262 
L 280.488913 463.832748 
L 280.662205 463.765115 
L 280.835497 463.843529 
L 281.008789 463.729511 
L 281.355373 463.979167 
L 281.701957 463.578302 
L 281.875248 463.841884 
L 282.221832 463.657412 
L 282.741708 463.911573 
L 283.088292 463.771283 
L 283.434876 463.928643 
L 283.78146 463.681104 
L 283.954752 463.2753 
L 284.128043 463.302832 
L 284.301335 462.947335 
L 284.474627 462.866666 
L 284.994503 463.668123 
L 285.167795 463.427875 
L 285.341087 463.7358 
L 285.514379 463.710049 
L 285.687671 464.055584 
L 285.860963 463.754165 
L 286.55413 463.775745 
L 286.727422 463.920347 
L 286.900714 463.803481 
L 287.767174 464.065832 
L 288.113758 463.741125 
L 288.28705 463.595895 
L 288.460342 463.138068 
L 288.633634 463.261227 
L 288.806925 463.723972 
L 288.980217 463.498851 
L 289.153509 463.623242 
L 289.500093 463.545814 
L 289.673385 463.68553 
L 290.019969 463.375892 
L 290.193261 463.609087 
L 290.539845 463.610485 
L 290.713137 463.861867 
L 290.886429 463.7886 
L 291.233012 464.026446 
L 291.406304 463.925247 
L 291.752888 463.925085 
L 292.272764 463.557227 
L 292.446056 463.724956 
L 292.619348 463.674166 
L 292.79264 463.372524 
L 293.139224 463.797616 
L 293.659099 463.999738 
L 294.005683 464.092836 
L 294.525559 464.077296 
L 294.872143 464.042948 
L 295.045435 463.880253 
L 295.565311 464.088191 
L 296.951646 464.081973 
L 300.764068 464.021016 
L 300.93736 463.747976 
L 301.457236 464.033849 
L 302.150404 464.059404 
L 302.323696 463.940009 
L 302.496988 464.088851 
L 304.576491 464.075863 
L 304.749783 464.11998 
L 305.269658 463.914155 
L 305.616242 463.891046 
L 305.789534 463.779564 
L 307.002578 463.999464 
L 307.522453 463.857954 
L 307.695745 463.726818 
L 307.869037 463.80716 
L 308.042329 463.63457 
L 308.388913 463.985526 
L 308.562205 463.944064 
L 308.735497 464.056347 
L 309.082081 463.933267 
L 309.255373 464.024888 
L 310.468416 463.793977 
L 311.334876 464.076868 
L 312.547919 464.149806 
L 319.82618 464.041438 
L 320.346056 463.790238 
L 321.039224 464.06198 
L 321.385807 464.034527 
L 321.732391 463.426005 
L 321.905683 463.864922 
L 322.078975 463.897874 
L 322.252267 463.687476 
L 322.425559 462.843913 
L 322.772143 463.488095 
L 322.945435 463.287424 
L 323.118727 462.534617 
L 323.465311 463.150839 
L 323.811894 462.470241 
L 323.985186 463.866735 
L 324.33177 463.633917 
L 324.505062 463.501928 
L 324.678354 463.579178 
L 324.851646 463.831952 
L 325.19823 463.707379 
L 325.371522 462.983941 
L 325.718106 460.968484 
L 325.891398 460.283179 
L 326.411273 463.545223 
L 326.757857 462.526999 
L 326.931149 462.526375 
L 327.277733 463.269765 
L 327.451025 463.357353 
L 327.624317 463.827539 
L 327.970901 463.014891 
L 328.144193 463.667678 
L 328.317484 463.325282 
L 328.490776 463.563527 
L 328.83736 463.386364 
L 329.183944 463.480233 
L 329.357236 462.931006 
L 329.530528 461.973051 
L 329.70382 461.697717 
L 329.877112 462.636087 
L 330.050404 461.429469 
L 330.57028 463.921259 
L 330.743571 463.352496 
L 330.916863 463.940333 
L 331.090155 463.869563 
L 331.263447 463.608246 
L 331.610031 463.981046 
L 331.956615 463.615004 
L 332.303199 463.942909 
L 332.649783 463.858572 
L 332.996366 463.47184 
L 333.34295 463.684164 
L 333.516242 463.292422 
L 333.689534 462.516169 
L 333.862826 462.974329 
L 334.20941 462.30185 
L 334.555994 463.379564 
L 334.729286 463.110882 
L 334.902578 463.060047 
L 335.249161 463.532529 
L 335.422453 463.176611 
L 335.595745 463.253143 
L 335.769037 463.165042 
L 335.942329 462.903635 
L 336.115621 462.348475 
L 336.462205 463.268888 
L 336.808789 463.784175 
L 336.982081 463.451338 
L 337.328665 464.058634 
L 337.675248 463.780473 
L 338.195124 463.974369 
L 339.061584 463.945649 
L 339.234876 464.112696 
L 340.274627 464.063171 
L 340.794503 464.114301 
L 340.967795 464.133209 
L 341.141087 463.878234 
L 341.314379 463.416512 
L 341.487671 464.089846 
L 341.660963 464.085559 
L 341.834255 463.85611 
L 342.180839 464.054512 
L 342.35413 463.822306 
L 342.700714 463.981665 
L 342.874006 463.717482 
L 343.047298 463.917524 
L 343.22059 463.8338 
L 343.567174 463.92925 
L 343.740466 463.820233 
L 343.913758 463.159108 
L 344.08705 463.52071 
L 344.260342 463.403546 
L 344.433634 460.7487 
L 344.606925 463.194076 
L 344.780217 463.67886 
L 345.126801 463.747642 
L 345.300093 463.142509 
L 345.993261 463.76188 
L 346.513137 463.257012 
L 346.686429 463.897743 
L 347.033012 463.440249 
L 347.206304 463.693356 
L 347.379596 463.25663 
L 347.552888 461.144627 
L 347.899472 463.914238 
L 348.072764 463.452744 
L 348.246056 463.423434 
L 348.419348 463.774182 
L 348.59264 463.628691 
L 348.765932 463.265122 
L 348.939224 463.751313 
L 349.285807 463.121258 
L 349.459099 463.8033 
L 349.805683 463.498402 
L 349.978975 463.947357 
L 350.152267 463.591051 
L 350.325559 463.704234 
L 350.498851 463.96745 
L 350.672143 463.564609 
L 350.845435 458.565129 
L 351.018727 463.828158 
L 351.192019 463.214248 
L 351.538602 463.357228 
L 351.711894 462.48129 
L 351.885186 463.917146 
L 352.058478 462.810807 
L 352.23177 462.704846 
L 352.405062 460.946061 
L 352.578354 461.136386 
L 352.751646 462.444393 
L 352.924938 459.344519 
L 353.09823 461.557991 
L 353.271522 461.706697 
L 353.444814 458.804194 
L 353.618106 462.17027 
L 353.791398 463.235508 
L 353.964689 446.096342 
L 354.137981 460.307816 
L 354.311273 462.448704 
L 354.484565 460.879237 
L 354.657857 462.946292 
L 354.831149 461.760508 
L 355.004441 461.781657 
L 355.177733 462.885074 
L 355.351025 461.360136 
L 355.524317 461.539242 
L 355.697609 462.916486 
L 355.870901 461.03741 
L 356.044193 462.614538 
L 356.217484 462.03655 
L 356.390776 463.121098 
L 356.564068 463.007769 
L 356.73736 463.654671 
L 356.910652 463.75954 
L 357.257236 463.711819 
L 357.430528 463.932044 
L 357.950404 463.457717 
L 358.123696 463.661076 
L 358.296988 457.526278 
L 358.47028 463.150885 
L 358.990155 463.029363 
L 359.163447 462.159537 
L 359.510031 463.059073 
L 359.856615 462.478232 
L 360.029907 462.522294 
L 360.203199 461.681834 
L 360.376491 463.374631 
L 360.549783 463.620845 
L 360.896366 463.370782 
L 361.069658 463.465208 
L 361.24295 463.097532 
L 361.416242 456.797746 
L 361.589534 457.983007 
L 361.762826 462.867659 
L 361.936118 463.389585 
L 362.282702 463.025809 
L 362.455994 463.811538 
L 362.97587 460.48238 
L 363.149161 461.215785 
L 363.322453 459.811544 
L 363.669037 463.541668 
L 364.188913 462.053131 
L 364.362205 458.52619 
L 364.535497 462.547377 
L 364.708789 456.269572 
L 364.882081 463.799255 
L 365.055373 463.645219 
L 365.228665 462.903747 
L 365.401957 463.645046 
L 365.74854 463.960021 
L 366.268416 463.760682 
L 366.441708 463.580719 
L 366.788292 463.838766 
L 367.134876 463.633643 
L 367.308168 463.420599 
L 367.48146 462.564176 
L 367.654752 463.429391 
L 367.828043 456.460232 
L 368.001335 458.564327 
L 368.174627 462.356044 
L 368.347919 463.191193 
L 368.521211 462.664164 
L 368.694503 461.112253 
L 368.867795 462.974513 
L 369.214379 463.827732 
L 369.560963 463.735328 
L 369.734255 463.428439 
L 369.907547 463.774472 
L 370.600714 463.457186 
L 370.774006 463.503362 
L 370.947298 463.248785 
L 371.12059 452.073744 
L 371.293882 463.300411 
L 371.467174 463.116286 
L 371.640466 462.665792 
L 371.813758 463.690007 
L 372.160342 463.43097 
L 372.680217 463.719615 
L 373.026801 463.715838 
L 373.200093 455.034954 
L 373.373385 463.278937 
L 373.546677 463.199957 
L 373.719969 462.352704 
L 373.893261 463.707994 
L 374.066553 463.766485 
L 374.239845 463.968119 
L 374.413137 463.866985 
L 374.586429 463.594331 
L 374.75972 463.804875 
L 374.933012 463.81242 
L 375.106304 463.062224 
L 375.279596 457.876162 
L 375.452888 461.631282 
L 375.799472 462.643414 
L 375.972764 462.3757 
L 376.146056 462.374255 
L 376.319348 463.203714 
L 376.49264 463.392177 
L 376.665932 463.238339 
L 376.839224 462.402715 
L 377.012516 463.055156 
L 377.185807 463.071345 
L 377.359099 462.35092 
L 377.532391 463.640656 
L 377.705683 463.979718 
L 377.878975 462.23018 
L 378.225559 463.367569 
L 378.398851 460.428164 
L 378.572143 453.850154 
L 378.745435 462.835912 
L 378.918727 461.707612 
L 379.092019 462.314177 
L 379.265311 463.660553 
L 379.438602 460.801407 
L 379.611894 463.794559 
L 379.785186 463.853421 
L 379.958478 462.622514 
L 380.13177 463.812882 
L 380.305062 463.44313 
L 380.478354 461.394455 
L 380.651646 463.794541 
L 380.824938 463.743466 
L 380.99823 461.735241 
L 381.171522 463.650811 
L 381.344814 463.245547 
L 381.518106 461.640841 
L 381.691398 453.180956 
L 381.864689 462.024106 
L 382.037981 463.412543 
L 382.211273 463.540285 
L 382.384565 463.528982 
L 382.731149 463.855444 
L 383.944193 463.960169 
L 384.117484 463.767312 
L 384.290776 464.000154 
L 384.63736 463.844299 
L 384.810652 463.201372 
L 384.983944 455.014933 
L 385.157236 462.442042 
L 385.330528 463.225896 
L 385.50382 462.830117 
L 385.677112 463.410392 
L 385.850404 463.39931 
L 386.023696 463.90357 
L 387.063447 463.930212 
L 387.236739 464.07628 
L 387.410031 463.907306 
L 387.756615 464.008413 
L 387.929907 463.960068 
L 388.103199 449.515701 
L 388.276491 462.414235 
L 388.449783 463.229296 
L 388.623075 463.161025 
L 388.969658 463.196225 
L 389.14295 463.451345 
L 389.489534 463.078373 
L 389.662826 463.273906 
L 390.00941 462.358347 
L 390.182702 459.079678 
L 390.355994 462.942464 
L 390.529286 463.272836 
L 390.702578 462.874536 
L 391.222453 464.018713 
L 391.395745 463.948729 
L 391.569037 464.030767 
L 391.742329 463.738722 
L 391.915621 463.755956 
L 392.088913 463.660432 
L 392.262205 462.943955 
L 392.435497 457.596563 
L 392.608789 460.652395 
L 392.782081 461.668357 
L 392.955373 461.011284 
L 393.128665 462.251124 
L 393.301957 461.63892 
L 393.475248 462.881909 
L 393.64854 461.112878 
L 393.995124 460.345435 
L 394.168416 459.103851 
L 394.341708 459.902395 
L 394.688292 463.701985 
L 395.034876 462.788737 
L 395.208168 462.59179 
L 395.38146 462.660045 
L 395.554752 452.826478 
L 395.901335 462.721484 
L 396.074627 463.216868 
L 396.247919 461.893614 
L 396.594503 463.034978 
L 396.767795 462.411312 
L 396.941087 462.702901 
L 397.287671 461.609184 
L 397.460963 459.665222 
L 397.634255 461.297534 
L 397.807547 461.57141 
L 397.980839 461.499349 
L 398.15413 460.207457 
L 398.327422 459.966961 
L 398.500714 460.085938 
L 398.847298 454.430325 
L 399.02059 461.614702 
L 399.193882 460.265143 
L 399.367174 461.13932 
L 399.540466 462.987516 
L 399.713758 463.247343 
L 399.88705 462.980028 
L 400.060342 463.602477 
L 400.233634 463.198457 
L 400.406925 463.491806 
L 400.580217 462.840003 
L 400.753509 463.381624 
L 401.100093 462.634394 
L 401.273385 462.700612 
L 401.619969 462.290408 
L 401.793261 461.42105 
L 401.966553 446.280634 
L 402.139845 456.809225 
L 402.486429 459.64133 
L 402.65972 460.78708 
L 402.833012 459.83873 
L 403.006304 460.162256 
L 403.179596 462.832284 
L 403.352888 461.994813 
L 403.699472 462.831692 
L 403.872764 462.728216 
L 404.046056 462.830398 
L 404.219348 463.152784 
L 404.39264 462.73396 
L 404.739224 461.707505 
L 404.912516 463.005104 
L 405.085807 454.716878 
L 405.432391 460.239009 
L 405.605683 463.316215 
L 405.778975 460.788345 
L 405.952267 461.069814 
L 406.125559 462.117689 
L 406.298851 461.985832 
L 406.472143 461.368522 
L 406.645435 461.947214 
L 406.818727 461.382567 
L 407.165311 461.84465 
L 407.338602 456.188946 
L 407.511894 462.320868 
L 407.685186 462.648641 
L 407.858478 461.289207 
L 408.03177 461.517272 
L 408.205062 463.294613 
L 408.378354 463.576972 
L 408.89823 463.726533 
L 409.071522 463.976226 
L 409.244814 463.8034 
L 409.418106 456.942916 
L 409.591398 462.306133 
L 409.764689 462.934922 
L 410.457857 462.840218 
L 410.631149 463.51676 
L 410.804441 463.658784 
L 410.977733 462.830344 
L 411.151025 463.536514 
L 411.497609 463.486491 
L 411.670901 464.017461 
L 411.844193 463.99317 
L 412.017484 463.539026 
L 412.190776 463.840447 
L 412.364068 463.65967 
L 412.710652 457.868429 
L 412.883944 462.472263 
L 413.057236 463.515468 
L 413.230528 462.565493 
L 413.40382 463.712629 
L 413.577112 463.199275 
L 413.923696 463.890212 
L 414.27028 463.037482 
L 414.443571 463.845722 
L 414.616863 463.49037 
L 414.963447 463.947469 
L 415.136739 463.317595 
L 415.310031 463.838435 
L 415.483323 463.892279 
L 415.656615 463.442274 
L 415.829907 455.990724 
L 416.003199 462.236002 
L 416.176491 463.016932 
L 416.696366 463.323079 
L 416.869658 462.966342 
L 417.216242 463.654129 
L 417.562826 463.555627 
L 417.736118 463.849386 
L 417.90941 463.548395 
L 418.082702 463.622893 
L 418.255994 463.543868 
L 418.429286 463.742357 
L 418.602578 463.578112 
L 418.77587 463.774941 
L 418.949161 455.869053 
L 419.122453 456.149409 
L 419.295745 461.977605 
L 419.469037 463.424411 
L 419.642329 462.206011 
L 419.815621 463.227598 
L 420.162205 463.615715 
L 420.335497 463.666847 
L 420.682081 461.410135 
L 420.855373 463.416426 
L 421.028665 462.459203 
L 421.375248 463.449733 
L 421.54854 462.43655 
L 421.895124 463.818631 
L 422.068416 463.287324 
L 422.241708 447.056675 
L 422.415 458.614978 
L 422.588292 460.896443 
L 422.761584 459.727926 
L 422.934876 460.679706 
L 423.108168 460.740361 
L 423.454752 458.886907 
L 423.628043 459.568922 
L 423.801335 457.91804 
L 423.974627 457.65223 
L 424.147919 458.48342 
L 424.321211 456.074603 
L 424.494503 462.845737 
L 424.667795 463.010999 
L 424.841087 462.441559 
L 425.187671 463.360303 
L 425.360963 463.705986 
L 425.534255 462.789575 
L 425.707547 463.278643 
L 425.880839 462.487747 
L 426.05413 462.694505 
L 426.227422 462.51906 
L 426.400714 457.349152 
L 426.574006 456.65182 
L 426.92059 460.875673 
L 427.093882 456.338068 
L 427.267174 459.790503 
L 427.440466 459.0698 
L 427.613758 460.403764 
L 427.78705 457.513979 
L 427.960342 459.700614 
L 428.306925 455.016212 
L 428.480217 456.88269 
L 428.653509 462.436063 
L 428.826801 462.322999 
L 429.000093 462.875223 
L 429.173385 462.800019 
L 429.346677 462.114372 
L 429.519969 462.369137 
L 429.693261 442.670269 
L 429.866553 457.055911 
L 430.213137 462.48235 
L 430.386429 462.068233 
L 430.55972 460.883128 
L 430.733012 462.160701 
L 430.906304 461.743068 
L 431.079596 462.608508 
L 431.252888 462.198241 
L 431.42618 462.200308 
L 431.599472 461.713413 
L 431.772764 462.357696 
L 431.946056 461.364795 
L 432.119348 461.589983 
L 432.29264 461.029031 
L 432.465932 461.273581 
L 432.639224 460.108774 
L 432.812516 454.511242 
L 433.159099 462.76593 
L 433.332391 463.625673 
L 433.505683 463.259026 
L 433.852267 463.668955 
L 434.718727 463.840376 
L 435.238602 463.632239 
L 435.93177 463.699196 
L 436.105062 454.207485 
L 436.278354 462.279403 
L 436.451646 462.938984 
L 436.624938 462.626566 
L 436.79823 463.400546 
L 436.971522 462.521171 
L 437.144814 463.512673 
L 437.491398 463.7374 
L 437.664689 463.651401 
L 438.184565 463.932435 
L 438.357857 463.872623 
L 438.531149 463.553137 
L 438.877733 463.785721 
L 439.051025 463.610118 
L 439.224317 446.306103 
L 439.397609 458.093546 
L 439.570901 457.986261 
L 439.744193 461.244178 
L 440.090776 459.070041 
L 440.264068 461.670417 
L 440.610652 456.572261 
L 440.783944 460.601414 
L 440.957236 454.749409 
L 441.130528 455.334029 
L 441.30382 460.723392 
L 441.477112 459.79826 
L 441.823696 463.059916 
L 442.17028 462.758114 
L 442.343571 463.587018 
L 442.516863 463.806732 
L 442.690155 463.819968 
L 442.863447 463.556152 
L 443.036739 463.65871 
L 443.210031 463.509159 
L 443.383323 463.695612 
L 443.556615 452.689798 
L 443.729907 461.452554 
L 443.903199 462.738215 
L 444.076491 461.686574 
L 444.249783 462.906496 
L 444.423075 462.14538 
L 444.596366 463.671778 
L 444.769658 463.694429 
L 444.94295 463.52015 
L 445.116242 463.70717 
L 445.289534 462.742776 
L 445.982702 463.919157 
L 446.329286 463.979774 
L 446.502578 463.612774 
L 446.67587 455.027552 
L 447.195745 463.381713 
L 447.369037 462.899151 
L 447.542329 463.583094 
L 447.715621 463.561568 
L 447.888913 463.652126 
L 448.062205 463.918103 
L 448.408789 463.889717 
L 448.582081 463.823922 
L 448.928665 464.002013 
L 449.795124 463.622556 
L 449.968416 457.281454 
L 450.141708 463.123285 
L 450.315 463.546245 
L 450.488292 462.772548 
L 450.661584 463.819883 
L 450.834876 463.258557 
L 451.18146 464.053947 
L 451.354752 464.114893 
L 451.701335 464.017153 
L 452.914379 464.04577 
L 453.087671 454.377757 
L 453.434255 462.231071 
L 453.607547 463.797663 
L 453.780839 462.85665 
L 454.127422 463.80944 
L 454.474006 464.048795 
L 455.167174 464.074331 
L 455.68705 464.11589 
L 456.033634 464.041799 
L 456.206925 463.931837 
L 456.380217 443.769369 
L 456.553509 462.616612 
L 456.726801 462.933636 
L 456.900093 462.788023 
L 457.073385 463.332851 
L 457.593261 463.549475 
L 457.766553 463.342276 
L 458.113137 461.79701 
L 458.286429 459.784368 
L 458.45972 463.424904 
L 458.633012 463.923355 
L 458.806304 464.065077 
L 458.979596 463.882452 
L 459.672764 464.044126 
L 459.846056 464.099856 
L 460.19264 463.83774 
L 460.365932 463.914772 
L 460.539224 464.131677 
L 461.578975 464.12086 
L 461.925559 464.060325 
L 465.737981 464.082129 
L 465.911273 463.663459 
L 466.084565 464.108868 
L 467.297609 464.060026 
L 467.470901 463.945009 
L 467.817484 464.106536 
L 468.510652 464.090531 
L 470.416863 464.100038 
L 473.189534 464.147745 
L 481.507547 464.162374 
L 481.680839 464.095561 
L 482.027422 464.137396 
L 483.760342 464.156627 
L 483.933634 464.065155 
L 484.106925 464.136277 
L 484.453509 463.94266 
L 484.626801 463.690325 
L 484.973385 463.924121 
L 485.146677 464.003413 
L 485.493261 463.838288 
L 486.013137 463.577514 
L 486.35972 463.639332 
L 486.533012 463.602478 
L 487.052888 464.160543 
L 488.09264 464.155973 
L 488.265932 450.222433 
L 488.439224 454.911258 
L 488.612516 444.866159 
L 488.959099 458.773368 
L 489.305683 459.603218 
L 489.478975 458.79678 
L 489.652267 459.736559 
L 490.172143 457.999778 
L 490.345435 459.030189 
L 490.692019 462.826492 
L 491.038602 463.843478 
L 491.211894 463.847707 
L 491.385186 464.039308 
L 491.73177 463.264951 
L 492.078354 463.624729 
L 492.251646 462.247828 
L 492.424938 455.558957 
L 492.59823 107.189682 
L 492.771522 127.954078 
L 493.118106 410.518368 
L 493.291398 403.956912 
L 493.464689 448.476537 
L 493.637981 425.585754 
L 493.811273 445.357154 
L 493.984565 438.687891 
L 494.157857 443.994739 
L 494.331149 425.944785 
L 494.677733 370.246415 
L 494.851025 407.760041 
L 495.024317 380.909335 
L 495.197609 303.337738 
L 495.370901 414.801602 
L 495.544193 452.676471 
L 495.717484 354.324475 
L 495.890776 361.065965 
L 496.064068 404.714329 
L 496.23736 368.215371 
L 496.410652 294.963235 
L 496.583944 384.761388 
L 496.757236 305.921438 
L 496.930528 382.686071 
L 497.10382 344.177417 
L 497.450404 400.425392 
L 497.623696 391.715004 
L 497.796988 449.857618 
L 497.97028 423.663972 
L 498.143571 430.93665 
L 498.316863 448.225881 
L 498.490155 441.837217 
L 498.663447 352.563281 
L 498.836739 415.070315 
L 499.010031 202.171189 
L 499.183323 152.694979 
L 499.356615 418.961295 
L 499.529907 416.110687 
L 499.703199 421.01223 
L 499.876491 247.150778 
L 500.049783 455.011741 
L 500.223075 457.147691 
L 500.569658 395.440948 
L 500.74295 452.671662 
L 500.916242 428.925848 
L 501.089534 386.939986 
L 501.436118 455.74648 
L 501.782702 442.458486 
L 501.955994 459.560878 
L 502.129286 441.480156 
L 502.302578 457.012937 
L 502.47587 434.598187 
L 502.649161 303.183825 
L 502.995745 419.579717 
L 503.169037 370.183196 
L 503.342329 437.461016 
L 503.515621 457.18494 
L 503.862205 354.588601 
L 504.035497 435.347198 
L 504.208789 426.145125 
L 504.382081 434.98153 
L 504.555373 461.047534 
L 504.728665 460.181011 
L 504.901957 454.592827 
L 505.075248 462.1427 
L 505.24854 441.062122 
L 505.421832 438.198251 
L 505.768416 401.289565 
L 505.941708 455.443334 
L 506.115 461.334741 
L 506.288292 462.162122 
L 506.461584 134.723816 
L 506.634876 158.071671 
L 506.808168 376.033585 
L 507.154752 435.483063 
L 507.328043 394.267469 
L 507.674627 457.547738 
L 507.847919 459.132302 
L 508.021211 458.128991 
L 508.194503 458.73953 
L 508.367795 463.432063 
L 508.541087 458.979846 
L 508.714379 458.028247 
L 508.887671 460.725395 
L 509.060963 457.388218 
L 509.234255 462.065352 
L 509.407547 463.494521 
L 509.75413 149.309475 
L 509.927422 213.257942 
L 510.274006 379.737838 
L 510.447298 315.642427 
L 510.793882 453.25495 
L 510.967174 455.462109 
L 511.140466 387.091472 
L 511.313758 382.128275 
L 511.48705 399.993966 
L 511.660342 380.755015 
L 511.833634 329.171458 
L 512.006925 449.947149 
L 512.180217 441.381322 
L 512.353509 321.201815 
L 512.526801 329.607261 
L 512.700093 454.933952 
L 512.873385 407.647294 
L 513.219969 457.592436 
L 513.393261 421.121679 
L 513.566553 340.001875 
L 513.739845 449.513315 
L 513.913137 322.887959 
L 514.086429 327.442172 
L 514.433012 424.180353 
L 514.606304 369.870521 
L 514.952888 443.257174 
L 515.12618 329.582164 
L 515.299472 320.033946 
L 515.472764 429.627801 
L 515.646056 432.865028 
L 515.819348 356.511435 
L 515.99264 380.775646 
L 516.165932 424.628458 
L 516.339224 383.713103 
L 516.512516 397.870481 
L 516.859099 441.061449 
L 517.032391 367.006996 
L 517.205683 371.875427 
L 517.378975 403.611783 
L 517.552267 379.005384 
L 517.898851 451.845815 
L 518.245435 166.791882 
L 518.418727 198.635101 
L 518.592019 392.638317 
L 518.765311 358.304087 
L 518.938602 363.642561 
L 519.111894 432.184291 
L 519.285186 324.294856 
L 519.458478 457.218494 
L 519.63177 431.835047 
L 519.978354 443.844426 
L 520.151646 430.662451 
L 520.324938 352.260652 
L 520.671522 423.367039 
L 520.844814 414.211533 
L 521.191398 448.23237 
L 521.364689 436.547843 
L 521.537981 460.894296 
L 521.711273 458.102012 
L 521.884565 459.794294 
L 522.057857 451.435446 
L 522.231149 462.201995 
L 522.404441 400.660989 
L 522.577733 423.190913 
L 522.751025 372.505706 
L 522.924317 436.395216 
L 523.097609 458.898581 
L 523.444193 463.614279 
L 523.617484 464.080659 
L 523.964068 464.11561 
L 524.310652 463.37376 
L 524.483944 459.645731 
L 524.657236 446.422599 
L 524.830528 458.856989 
L 525.00382 460.175626 
L 525.177112 450.882205 
L 525.523696 463.553142 
L 525.696988 455.476104 
L 525.87028 458.275474 
L 526.043571 458.930811 
L 526.216863 462.851172 
L 526.390155 463.079508 
L 526.563447 456.055156 
L 526.736739 117.165749 
L 526.910031 166.360971 
L 527.083323 383.082919 
L 527.256615 422.342675 
L 527.603199 452.811957 
L 527.776491 405.304516 
L 527.949783 455.164471 
L 528.123075 459.064193 
L 528.296366 448.457259 
L 528.469658 428.963844 
L 528.64295 443.497687 
L 528.816242 416.17228 
L 528.989534 420.108914 
L 529.162826 438.095998 
L 529.50941 421.945951 
L 529.682702 450.590683 
L 529.855994 416.115503 
L 530.029286 167.904397 
L 530.202578 421.554477 
L 530.37587 408.248956 
L 530.549161 368.442517 
L 530.722453 399.499549 
L 531.069037 245.590374 
L 531.242329 227.478489 
L 531.415621 389.033037 
L 531.588913 431.780208 
L 531.762205 365.076887 
L 531.935497 424.373555 
L 532.108789 423.490273 
L 532.282081 317.925354 
L 532.455373 332.067419 
L 532.628665 416.566542 
L 532.975248 371.623558 
L 533.321832 121.967655 
L 533.495124 422.059314 
L 533.668416 421.293008 
L 533.841708 362.629672 
L 534.015 377.633477 
L 534.188292 447.470554 
L 534.361584 462.639378 
L 534.534876 425.156749 
L 534.708168 335.130801 
L 534.88146 436.314521 
L 535.054752 454.660912 
L 535.228043 411.764785 
L 535.401335 455.555128 
L 535.574627 443.246552 
L 535.747919 448.002306 
L 535.921211 447.819014 
L 536.094503 462.210697 
L 536.441087 403.091875 
L 536.614379 400.076285 
L 536.787671 306.072276 
L 536.960963 422.170286 
L 537.134255 459.255913 
L 537.307547 365.82175 
L 537.480839 345.529214 
L 537.65413 418.841056 
L 537.827422 399.872629 
L 538.000714 295.372861 
L 538.174006 432.055573 
L 538.347298 441.943283 
L 538.52059 440.211014 
L 538.693882 455.924115 
L 539.040466 447.00759 
L 539.213758 461.048397 
L 539.38705 376.936916 
L 539.560342 446.670694 
L 539.733634 386.219872 
L 539.906925 401.736964 
L 540.080217 456.212673 
L 540.253509 460.600549 
L 540.426801 452.220938 
L 540.600093 175.554993 
L 540.773385 123.494511 
L 540.946677 424.195002 
L 541.119969 424.992092 
L 541.293261 421.600421 
L 541.466553 415.064031 
L 541.813137 454.598272 
L 541.986429 453.013611 
L 542.15972 447.809957 
L 542.333012 459.15956 
L 542.506304 462.45068 
L 542.679596 456.55002 
L 542.852888 461.602385 
L 543.02618 452.443867 
L 543.199472 463.097096 
L 543.372764 461.539514 
L 543.546056 463.683369 
L 543.719348 238.437734 
L 543.89264 191.929002 
L 544.065932 296.256781 
L 544.239224 282.80261 
L 544.412516 395.64883 
L 544.585807 261.699229 
L 544.759099 448.905097 
L 544.932391 454.785352 
L 545.105683 419.044513 
L 545.278975 345.858961 
L 545.625559 457.976519 
L 545.972143 316.181149 
L 546.145435 335.867467 
L 546.318727 420.292624 
L 546.492019 236.753102 
L 546.665311 297.38837 
L 546.838602 455.538084 
L 547.185186 260.147123 
L 547.358478 388.547103 
L 547.53177 425.663746 
L 547.705062 394.447788 
L 547.878354 412.101101 
L 548.39823 353.249015 
L 548.571522 435.955417 
L 548.918106 396.627961 
L 549.091398 438.903778 
L 549.264689 450.833657 
L 549.437981 396.374752 
L 549.611273 390.347093 
L 549.784565 417.684748 
L 550.131149 317.969423 
L 550.304441 439.59968 
L 550.477733 439.051651 
L 550.651025 367.518606 
L 550.997609 441.201285 
L 551.170901 384.759552 
L 551.344193 395.308746 
L 551.517484 447.2451 
L 551.690776 419.488385 
L 551.864068 339.166637 
L 552.03736 403.383905 
L 552.210652 288.457774 
L 552.383944 93.039992 
L 552.557236 205.191786 
L 552.730528 413.338026 
L 552.90382 259.30149 
L 553.077112 401.10063 
L 553.250404 425.283507 
L 553.423696 396.00802 
L 553.596988 461.453521 
L 553.77028 445.638679 
L 553.943571 326.848338 
L 554.290155 456.75531 
L 554.463447 335.530884 
L 554.810031 451.430764 
L 554.983323 436.137442 
L 555.156615 316.037618 
L 555.329907 437.364909 
L 555.503199 408.754002 
L 555.676491 458.239402 
L 555.849783 460.035872 
L 556.023075 459.717878 
L 556.196366 457.730411 
L 556.369658 463.241563 
L 556.54295 408.735812 
L 556.716242 421.427043 
L 556.889534 385.804934 
L 557.062826 446.940539 
L 557.40941 460.896791 
L 557.582702 463.558657 
L 557.755994 463.965714 
L 557.929286 464.009125 
L 558.102578 463.876239 
L 558.27587 464.071608 
L 558.449161 464.081479 
L 558.795745 448.1877 
L 558.969037 456.346692 
L 559.142329 458.905532 
L 559.315621 458.48121 
L 559.488913 461.594293 
L 559.662205 462.388258 
L 559.835497 457.807665 
L 560.008789 447.562326 
L 560.182081 446.188203 
L 560.355373 462.070981 
L 560.528665 462.959534 
L 560.701957 422.215731 
L 560.875248 200.907938 
L 561.04854 219.814042 
L 561.221832 439.137188 
L 561.568416 396.191421 
L 561.741708 435.936451 
L 561.915 319.756999 
L 562.088292 443.680725 
L 562.261584 459.526693 
L 562.434876 436.296184 
L 562.608168 362.233307 
L 562.78146 451.073142 
L 562.954752 433.676379 
L 563.128043 431.428004 
L 563.301335 417.050453 
L 563.474627 416.46933 
L 563.647919 330.475056 
L 563.821211 418.895486 
L 563.994503 440.35567 
L 564.167795 435.384749 
L 564.341087 404.467086 
L 564.514379 393.851641 
L 564.687671 376.284532 
L 564.860963 395.19239 
L 565.034255 357.343381 
L 565.207547 362.095545 
L 565.380839 306.76871 
L 565.727422 445.153361 
L 565.900714 388.790686 
L 566.074006 370.019466 
L 566.247298 433.175116 
L 566.42059 413.00875 
L 566.593882 413.021642 
L 566.940466 453.225488 
L 567.28705 221.330401 
L 567.460342 223.938232 
L 567.806925 436.470585 
L 567.980217 407.873894 
L 568.326801 462.154669 
L 568.500093 451.514993 
L 568.673385 431.730446 
L 568.846677 443.478032 
L 569.019969 444.104897 
L 569.193261 456.719605 
L 569.366553 398.930508 
L 569.539845 422.497475 
L 569.713137 430.317284 
L 569.886429 446.522726 
L 570.05972 419.003566 
L 570.233012 460.277578 
L 570.579596 412.357018 
L 570.752888 458.099179 
L 570.92618 426.445797 
L 571.099472 351.794744 
L 571.272764 451.82553 
L 571.446056 424.344131 
L 571.619348 291.617352 
L 571.79264 428.897508 
L 571.965932 456.753644 
L 572.312516 368.208299 
L 572.485807 437.665097 
L 572.659099 445.029404 
L 572.832391 446.453571 
L 573.005683 457.651434 
L 573.178975 453.321688 
L 573.352267 456.019258 
L 573.525559 322.851107 
L 573.698851 441.176132 
L 573.872143 359.411367 
L 574.218727 455.135767 
L 574.392019 451.388526 
L 574.565311 397.296445 
L 574.738602 211.997791 
L 574.911894 192.913833 
L 575.085186 430.345755 
L 575.258478 423.855477 
L 575.43177 402.024871 
L 575.605062 443.149877 
L 575.778354 409.865253 
L 575.951646 456.458259 
L 576.124938 458.729365 
L 576.29823 453.818037 
L 576.471522 455.065869 
L 576.644814 462.096866 
L 576.818106 414.258694 
L 576.991398 452.754028 
L 577.337981 458.539985 
L 577.684565 464.031056 
L 577.857857 176.996912 
L 578.377733 385.959444 
L 578.551025 363.269621 
L 578.724317 358.396006 
L 578.897609 455.767987 
L 579.070901 433.038663 
L 579.244193 455.196896 
L 579.417484 453.829059 
L 579.590776 430.455144 
L 579.764068 424.510243 
L 579.93736 427.295191 
L 580.110652 211.823749 
L 580.283944 404.540338 
L 580.457236 439.38721 
L 580.80382 360.666575 
L 580.977112 448.478676 
L 581.150404 437.506601 
L 581.323696 290.224903 
L 581.496988 417.28437 
L 581.67028 459.830835 
L 581.843571 422.413231 
L 582.016863 335.280572 
L 582.190155 396.462961 
L 582.536739 314.748277 
L 582.710031 418.657265 
L 582.883323 444.289653 
L 583.056615 407.741196 
L 583.229907 333.480721 
L 583.403199 434.373645 
L 583.749783 316.979319 
L 583.923075 424.076409 
L 584.096366 442.065926 
L 584.269658 371.132216 
L 584.616242 446.667924 
L 584.789534 382.123459 
L 584.962826 360.376424 
L 585.136118 453.540399 
L 585.482702 349.462805 
L 585.829286 446.346758 
L 586.002578 363.118974 
L 586.17587 388.035709 
L 586.349161 248.116039 
L 586.522453 199.19385 
L 586.695745 212.228178 
L 586.869037 404.116486 
L 587.215621 364.15053 
L 587.388913 446.088092 
L 587.562205 454.698643 
L 587.735497 457.055565 
L 587.908789 428.103356 
L 588.082081 371.649373 
L 588.255373 438.73306 
L 588.428665 460.622016 
L 588.601957 410.089318 
L 588.775248 286.730724 
L 588.94854 414.795649 
L 589.121832 424.329244 
L 589.295124 306.187609 
L 589.468416 399.531795 
L 589.815 452.223297 
L 590.161584 460.245088 
L 590.334876 444.852719 
L 590.508168 463.192884 
L 590.854752 421.991189 
L 591.028043 398.700668 
L 591.201335 452.251535 
L 591.547919 460.507697 
L 591.894503 463.704754 
L 592.241087 463.955416 
L 592.587671 464.035924 
L 592.760963 449.805664 
L 592.934255 446.906469 
L 593.280839 461.434056 
L 593.45413 451.085492 
L 593.627422 462.218662 
L 593.800714 462.685295 
L 593.974006 449.569195 
L 594.147298 453.291383 
L 594.32059 459.748918 
L 594.667174 463.039231 
L 594.840466 359.264316 
L 595.013758 109.392169 
L 595.18705 198.821444 
L 595.360342 437.398511 
L 595.533634 231.965809 
L 595.706925 420.715624 
L 595.880217 398.950046 
L 596.053509 348.245898 
L 596.226801 437.84866 
L 596.400093 461.078425 
L 596.573385 409.86362 
L 596.746677 265.821717 
L 596.919969 429.210947 
L 597.093261 421.936604 
L 597.439845 278.790576 
L 597.613137 451.115462 
L 597.786429 432.612323 
L 597.95972 384.909094 
L 598.133012 395.912561 
L 598.306304 374.859025 
L 598.479596 276.658462 
L 598.652888 408.612746 
L 598.999472 439.205175 
L 599.172764 333.937072 
L 599.346056 411.422245 
L 599.519348 318.04516 
L 599.69264 361.844273 
L 599.865932 439.490183 
L 600.039224 433.253127 
L 600.212516 367.319156 
L 600.559099 446.68814 
L 600.905683 245.630708 
L 601.078975 417.615991 
L 601.252267 332.85156 
L 601.425559 120.268333 
L 601.598851 181.918879 
L 601.772143 359.28107 
L 601.945435 369.079861 
L 602.118727 391.616743 
L 602.292019 445.483365 
L 602.465311 438.460149 
L 602.638602 451.229284 
L 602.811894 440.165294 
L 602.985186 447.587208 
L 603.158478 369.781544 
L 603.33177 438.108145 
L 603.505062 430.999238 
L 603.678354 433.191601 
L 603.851646 453.887133 
L 604.024938 448.973911 
L 604.19823 433.748446 
L 604.371522 457.704883 
L 604.544814 450.77584 
L 604.891398 396.695171 
L 605.064689 404.845629 
L 605.237981 356.358957 
L 605.411273 430.702089 
L 605.584565 442.23851 
L 605.757857 427.171405 
L 605.931149 385.911645 
L 606.104441 429.679063 
L 606.451025 345.295002 
L 606.624317 430.409969 
L 606.797609 451.293177 
L 606.970901 456.781861 
L 607.490776 462.96924 
L 607.664068 334.964778 
L 607.83736 437.4371 
L 608.010652 371.80938 
L 608.357236 456.067243 
L 608.530528 457.172023 
L 608.70382 345.815056 
L 608.877112 130.467493 
L 609.050404 165.090959 
L 609.223696 412.688432 
L 609.396988 321.428822 
L 609.57028 433.460345 
L 609.916863 434.996315 
L 610.090155 457.227384 
L 610.263447 460.794707 
L 610.436739 452.775034 
L 610.783323 462.707722 
L 610.956615 448.386051 
L 611.129907 456.992312 
L 611.303199 449.637798 
L 611.476491 452.519204 
L 611.649783 462.183419 
L 611.823075 463.980203 
L 611.996366 152.384789 
L 612.516242 434.358148 
L 612.689534 414.435055 
L 612.862826 356.361677 
L 613.036118 457.152123 
L 613.20941 441.876528 
L 613.382702 409.898661 
L 613.555994 435.031194 
L 613.902578 406.136589 
L 614.249161 458.153767 
L 614.422453 401.843777 
L 614.595745 389.181848 
L 614.942329 430.304672 
L 615.115621 412.571256 
L 615.288913 434.682085 
L 615.462205 410.554209 
L 615.635497 294.151493 
L 615.808789 423.58063 
L 615.982081 395.154903 
L 616.155373 253.506328 
L 616.328665 417.224543 
L 616.675248 326.052277 
L 617.021832 443.636977 
L 617.195124 433.282551 
L 617.368416 358.338912 
L 617.541708 441.746409 
L 617.715 451.017055 
L 617.888292 407.125664 
L 618.061584 404.569781 
L 618.234876 447.661489 
L 618.408168 338.576857 
L 618.58146 377.450476 
L 618.754752 442.207448 
L 618.928043 429.127481 
L 619.101335 344.562339 
L 619.447919 446.153259 
L 619.621211 360.162799 
L 619.794503 387.845636 
L 619.967795 448.965154 
L 620.314379 384.534229 
L 620.487671 156.76041 
L 620.660963 186.794566 
L 620.834255 261.286667 
L 621.007547 426.042144 
L 621.180839 325.079951 
L 621.700714 461.064917 
L 621.874006 458.877972 
L 622.047298 459.58053 
L 622.393882 397.663025 
L 622.567174 451.967813 
L 622.740466 397.950773 
L 622.913758 381.345005 
L 623.08705 441.687184 
L 623.260342 458.529278 
L 623.606925 368.968391 
L 623.780217 452.805033 
L 623.953509 457.732145 
L 624.126801 455.084873 
L 624.473385 459.8578 
L 624.646677 456.97599 
L 624.819969 428.268785 
L 624.993261 418.933586 
L 625.166553 399.134895 
L 625.339845 453.788492 
L 625.513137 458.692446 
L 625.686429 459.742162 
L 626.033012 463.700066 
L 626.379596 463.970775 
L 626.72618 463.946509 
L 626.899472 445.640526 
L 627.072764 460.073975 
L 627.246056 460.253729 
L 627.419348 460.645758 
L 627.59264 454.059966 
L 627.765932 463.426614 
L 627.939224 459.409467 
L 628.112516 452.28889 
L 628.285807 460.158328 
L 628.459099 458.415352 
L 628.805683 463.61705 
L 629.152267 157.418709 
L 629.325559 233.667774 
L 629.498851 393.975196 
L 629.672143 134.682669 
L 629.845435 451.945254 
L 630.018727 436.577791 
L 630.192019 457.577286 
L 630.538602 415.745241 
L 630.711894 437.635798 
L 630.885186 380.313982 
L 631.058478 391.009312 
L 631.23177 441.403263 
L 631.405062 395.857557 
L 631.578354 241.599942 
L 631.751646 387.567984 
L 631.924938 417.772166 
L 632.09823 376.326855 
L 632.271522 401.061554 
L 632.444814 453.948015 
L 632.791398 313.719492 
L 632.964689 413.10329 
L 633.137981 390.420136 
L 633.311273 240.334912 
L 633.484565 350.953928 
L 633.657857 351.322102 
L 633.831149 342.640255 
L 634.004441 345.358514 
L 634.177733 424.505487 
L 634.524317 371.189883 
L 634.697609 445.732479 
L 634.870901 441.77023 
L 635.044193 259.022269 
L 635.217484 393.001421 
L 635.564068 134.712405 
L 635.910652 330.296681 
L 636.083944 395.350465 
L 636.257236 351.039474 
L 636.430528 457.48452 
L 636.60382 409.906235 
L 636.950404 456.810315 
L 637.123696 458.688199 
L 637.47028 384.142495 
L 637.643571 424.93081 
L 637.816863 429.210417 
L 637.990155 462.956797 
L 638.163447 461.387541 
L 638.336739 461.701674 
L 638.510031 460.688872 
L 638.683323 443.883738 
L 638.856615 325.650581 
L 639.203199 453.190199 
L 639.376491 415.933138 
L 639.549783 351.527785 
L 639.723075 371.823517 
L 639.896366 250.580657 
L 640.069658 292.914101 
L 640.24295 408.07025 
L 640.416242 431.608044 
L 640.589534 354.944919 
L 640.936118 458.576328 
L 641.10941 458.447531 
L 641.455994 459.18281 
L 641.629286 463.612787 
L 641.802578 222.53131 
L 641.97587 375.20545 
L 642.322453 446.53051 
L 642.495745 457.812095 
L 642.669037 460.128607 
L 643.015621 126.033366 
L 643.188913 189.65426 
L 643.362205 349.0246 
L 643.535497 309.481721 
L 643.708789 450.96513 
L 643.882081 453.010916 
L 644.055373 450.701131 
L 644.228665 458.167369 
L 644.401957 458.404385 
L 644.575248 458.214006 
L 644.74854 463.010158 
L 644.921832 461.987527 
L 645.268416 456.207389 
L 645.441708 459.514766 
L 645.615 459.478738 
L 645.788292 459.651949 
L 645.961584 462.816679 
L 646.134876 126.287033 
L 646.308168 143.369027 
L 646.828043 447.685222 
L 647.001335 354.803548 
L 647.174627 432.934125 
L 647.347919 456.914345 
L 647.521211 422.121664 
L 647.694503 435.052584 
L 647.867795 392.826083 
L 648.041087 262.47436 
L 648.214379 434.813455 
L 648.560963 333.514357 
L 648.734255 449.501021 
L 648.907547 393.336689 
L 649.080839 396.072384 
L 649.25413 441.81679 
L 649.427422 381.045311 
L 649.600714 382.947089 
L 649.774006 450.923647 
L 649.947298 382.95648 
L 650.12059 418.131889 
L 650.293882 320.551115 
L 650.467174 318.610897 
L 650.640466 343.288223 
L 650.813758 392.759998 
L 650.98705 400.45934 
L 651.160342 425.030138 
L 651.333634 432.093728 
L 651.506925 323.229282 
L 651.680217 429.281356 
L 651.853509 317.950934 
L 652.200093 366.806714 
L 652.373385 381.688094 
L 652.719969 441.402028 
L 652.893261 379.498435 
L 653.066553 446.213031 
L 653.239845 430.790781 
L 653.413137 383.487653 
L 653.586429 420.046216 
L 653.75972 396.414291 
L 653.933012 349.253437 
L 654.106304 448.785765 
L 654.279596 398.292084 
L 654.452888 407.684711 
L 654.62618 132.063503 
L 654.799472 92.459488 
L 654.972764 195.658448 
L 655.146056 401.639898 
L 655.319348 373.096407 
L 655.49264 445.970024 
L 655.665932 446.039109 
L 655.839224 457.774103 
L 656.012516 451.274031 
L 656.185807 452.514432 
L 656.359099 399.301109 
L 656.705683 452.827843 
L 656.878975 284.997156 
L 657.052267 400.606308 
L 657.225559 329.031447 
L 657.398851 184.771381 
L 657.572143 397.669804 
L 657.745435 437.159175 
L 657.918727 438.320779 
L 658.092019 457.983267 
L 658.438602 453.427929 
L 658.611894 461.640139 
L 658.785186 379.652742 
L 658.958478 435.245217 
L 659.13177 416.456708 
L 659.305062 413.223217 
L 659.478354 454.309588 
L 659.651646 452.84053 
L 659.99823 461.342267 
L 660.171522 463.536504 
L 660.344814 463.731593 
L 660.864689 463.706666 
L 661.037981 448.838433 
L 661.211273 458.351018 
L 661.384565 458.646368 
L 661.557857 456.608862 
L 661.731149 457.07346 
L 661.904441 463.140792 
L 662.077733 456.821284 
L 662.251025 456.576831 
L 662.597609 459.866998 
L 662.944193 463.565771 
L 663.117484 195.068693 
L 663.290776 139.881584 
L 663.63736 387.500234 
L 663.810652 330.865621 
L 664.157236 458.258819 
L 664.330528 429.300421 
L 664.50382 439.840611 
L 664.677112 426.511022 
L 664.850404 399.934127 
L 665.023696 354.260175 
L 665.196988 439.533146 
L 665.37028 445.888238 
L 665.543571 286.86883 
L 665.716863 290.11689 
L 665.890155 418.822596 
L 666.063447 370.906099 
L 666.236739 386.221384 
L 666.410031 447.974468 
L 666.583323 424.777625 
L 666.756615 316.783992 
L 666.929907 389.791452 
L 667.103199 415.849862 
L 667.449783 345.857677 
L 667.623075 410.877964 
L 667.796366 307.132436 
L 667.969658 287.715288 
L 668.14295 409.17936 
L 668.316242 422.483319 
L 668.489534 360.115108 
L 668.662826 444.66203 
L 668.836118 452.462616 
L 669.182702 286.710672 
L 669.355994 440.019603 
L 669.529286 170.226056 
L 669.702578 208.6024 
L 669.87587 128.21936 
L 670.222453 402.456926 
L 670.395745 451.145668 
L 670.569037 441.585756 
L 671.088913 459.652039 
L 671.262205 449.385284 
L 671.435497 307.629833 
L 671.608789 431.782848 
L 672.128665 463.157579 
L 672.301957 460.37304 
L 672.475248 459.764652 
L 672.64854 448.070456 
L 672.995124 193.17698 
L 673.168416 444.376623 
L 673.341708 431.380405 
L 673.515 352.777961 
L 673.688292 413.181912 
L 673.861584 412.060847 
L 674.034876 207.246028 
L 674.208168 388.878635 
L 674.38146 451.03405 
L 674.554752 412.642253 
L 674.728043 343.768096 
L 674.901335 442.984824 
L 675.074627 453.15049 
L 675.247919 449.614807 
L 675.421211 456.60712 
L 675.594503 457.86382 
L 675.767795 461.298444 
L 675.941087 262.872422 
L 676.114379 396.78068 
L 676.287671 413.616822 
L 676.460963 450.935009 
L 676.634255 458.129067 
L 676.807547 460.483244 
L 676.980839 209.330768 
L 677.15413 142.498513 
L 677.327422 195.903855 
L 677.500714 336.963819 
L 677.674006 373.049523 
L 677.847298 433.961112 
L 678.02059 451.460394 
L 678.193882 449.540424 
L 678.367174 458.28491 
L 678.713758 455.200972 
L 678.88705 461.602787 
L 679.060342 459.392671 
L 679.233634 454.746506 
L 679.406925 453.970261 
L 679.580217 459.416601 
L 679.753509 460.543312 
L 679.926801 462.494369 
L 680.100093 449.63369 
L 680.273385 173.283656 
L 680.446677 170.469735 
L 680.793261 423.789093 
L 680.966553 446.93897 
L 681.139845 424.622968 
L 681.313137 455.226643 
L 681.65972 436.878848 
L 681.833012 373.470001 
L 682.006304 420.06751 
L 682.179596 400.432133 
L 682.352888 367.891768 
L 682.52618 436.445846 
L 682.699472 409.40157 
L 682.872764 412.326631 
L 683.046056 447.670713 
L 683.39264 389.382061 
L 683.565932 449.269784 
L 683.739224 376.69961 
L 683.912516 440.029945 
L 684.085807 441.833225 
L 684.259099 384.279171 
L 684.432391 215.819772 
L 684.605683 387.968677 
L 684.778975 313.889035 
L 684.952267 423.002404 
L 685.125559 434.734405 
L 685.298851 390.38073 
L 685.472143 448.617459 
L 685.645435 351.773383 
L 685.992019 421.914639 
L 686.165311 409.542782 
L 686.338602 369.967009 
L 686.511894 453.685014 
L 686.685186 369.442323 
L 686.858478 446.13843 
L 687.03177 439.62358 
L 687.205062 386.979157 
L 687.378354 445.485557 
L 687.551646 443.719174 
L 687.724938 344.06784 
L 687.89823 451.930229 
L 688.071522 435.704018 
L 688.244814 404.366709 
L 688.418106 454.139762 
L 688.591398 419.777888 
L 688.764689 140.463739 
L 689.111273 217.613739 
L 689.284565 420.584988 
L 689.457857 430.632121 
L 689.631149 431.092619 
L 689.804441 459.254821 
L 689.977733 431.03601 
L 690.151025 451.906385 
L 690.324317 443.9925 
L 690.497609 364.942664 
L 691.017484 445.615215 
L 691.190776 398.46 
L 691.364068 395.020222 
L 691.53736 396.880091 
L 691.710652 393.67821 
L 691.883944 408.547785 
L 692.230528 459.442428 
L 692.40382 457.172004 
L 692.577112 445.118514 
L 692.750404 461.59201 
L 692.923696 354.163217 
L 693.096988 371.366949 
L 693.27028 411.371307 
L 693.443571 423.033407 
L 693.616863 456.454163 
L 693.790155 456.735393 
L 693.963447 461.222851 
L 694.310031 463.263561 
L 694.483323 463.7906 
L 695.003199 463.756425 
L 695.176491 432.483695 
L 695.349783 458.133309 
L 695.523075 452.632375 
L 695.696366 451.044859 
L 695.869658 450.726912 
L 696.04295 463.34383 
L 696.216242 453.383394 
L 696.562826 461.785416 
L 696.736118 458.208081 
L 696.90941 462.552512 
L 697.082702 463.663013 
L 697.255994 139.333764 
L 697.602578 201.959025 
L 698.122453 433.626133 
L 698.295745 449.447112 
L 698.469037 411.293785 
L 698.815621 441.171742 
L 698.988913 433.01469 
L 699.162205 407.695068 
L 699.335497 429.985247 
L 699.508789 414.124696 
L 699.682081 276.910248 
L 699.855373 427.151514 
L 700.028665 457.868425 
L 700.201957 429.840772 
L 700.375248 366.193653 
L 700.54854 423.327922 
L 700.895124 318.120693 
L 701.068416 442.403776 
L 701.241708 455.703883 
L 701.415 314.838806 
L 701.588292 390.158514 
L 701.761584 407.812415 
L 701.934876 312.549017 
L 702.108168 334.42875 
L 702.28146 432.151839 
L 702.454752 430.478259 
L 702.628043 375.127433 
L 702.801335 431.219738 
L 702.974627 380.089168 
L 703.147919 367.669902 
L 703.321211 339.173194 
L 703.494503 458.051983 
L 703.667795 155.708764 
L 703.841087 95.816757 
L 704.187671 448.547057 
L 704.360963 209.025102 
L 704.534255 456.554199 
L 704.707547 438.770458 
L 704.880839 455.545103 
L 705.05413 440.004922 
L 705.227422 434.850907 
L 705.574006 306.779664 
L 705.747298 413.51791 
L 705.92059 427.576341 
L 706.093882 457.976073 
L 706.267174 463.326457 
L 706.440466 461.663484 
L 706.613758 461.590347 
L 706.78705 456.297174 
L 706.960342 432.324187 
L 707.133634 338.119616 
L 707.306925 449.060168 
L 707.480217 401.715266 
L 707.653509 186.759392 
L 707.826801 420.205746 
L 708.000093 397.419314 
L 708.173385 401.87559 
L 708.346677 413.098719 
L 708.519969 416.663199 
L 708.693261 363.133899 
L 708.866553 391.15013 
L 709.039845 444.298687 
L 709.213137 455.862852 
L 709.386429 459.48221 
L 709.55972 457.959276 
L 709.733012 460.832271 
L 709.906304 451.510309 
L 710.079596 373.172017 
L 710.252888 412.779259 
L 710.42618 409.330884 
L 710.599472 450.602568 
L 710.946056 461.666509 
L 711.119348 168.161368 
L 711.29264 146.505745 
L 711.465932 168.530927 
L 711.639224 358.440292 
L 711.812516 377.140503 
L 711.985807 439.5187 
L 712.159099 442.631315 
L 712.332391 458.053541 
L 712.505683 455.194752 
L 712.678975 460.983368 
L 712.852267 458.343655 
L 713.025559 462.904072 
L 713.372143 452.158763 
L 713.892019 462.118516 
L 714.065311 463.841595 
L 714.238602 394.434566 
L 714.411894 156.75027 
L 714.585186 290.944211 
L 714.758478 325.749928 
L 714.93177 416.332153 
L 715.105062 335.210248 
L 715.278354 456.575336 
L 715.451646 416.090231 
L 715.79823 447.188513 
L 715.971522 387.446475 
L 716.144814 377.764085 
L 716.318106 452.472595 
L 716.491398 385.305205 
L 716.664689 458.128759 
L 717.011273 386.877859 
L 717.184565 454.925283 
L 717.531149 363.435918 
L 717.704441 455.13412 
L 717.877733 399.032339 
L 718.224317 452.888684 
L 718.397609 378.381688 
L 718.570901 174.497959 
L 718.744193 324.053147 
L 718.917484 349.007623 
L 719.090776 425.958513 
L 719.264068 423.160094 
L 719.43736 411.036687 
L 719.610652 431.743268 
L 719.957236 187.55943 
L 720.130528 441.687386 
L 720.477112 179.41159 
L 720.650404 457.755668 
L 720.996988 397.356946 
L 721.17028 445.779489 
L 721.343571 381.407513 
L 721.516863 430.132228 
L 721.690155 445.947123 
L 721.863447 341.503773 
L 722.036739 442.649682 
L 722.210031 426.803218 
L 722.383323 349.242267 
L 722.556615 453.570662 
L 722.729907 443.859309 
L 722.903199 111.909854 
L 723.076491 158.426413 
L 723.249783 329.674954 
L 723.596366 449.781615 
L 723.769658 427.125276 
L 723.94295 449.040852 
L 724.116242 431.882802 
L 724.289534 433.478644 
L 724.636118 452.937257 
L 724.80941 412.248442 
L 724.982702 406.383439 
L 725.155994 426.513277 
L 725.329286 229.748097 
L 725.67587 417.88503 
L 725.849161 352.349299 
L 726.022453 440.53597 
L 726.369037 457.238534 
L 726.542329 459.5948 
L 726.715621 454.534722 
L 726.888913 461.463446 
L 727.062205 313.943753 
L 727.235497 347.458059 
L 727.408789 417.309584 
L 727.582081 431.802507 
L 727.755373 457.268722 
L 727.928665 457.392225 
L 728.275248 463.192578 
L 728.44854 463.771917 
L 728.968416 463.908406 
L 729.141708 463.307559 
L 729.315 450.05179 
L 729.488292 457.747062 
L 729.661584 458.579381 
L 729.834876 454.53059 
L 730.008168 455.14877 
L 730.18146 462.618256 
L 730.354752 455.944527 
L 730.528043 456.102099 
L 730.701335 456.979019 
L 730.874627 462.445733 
L 731.047919 462.13831 
L 731.221211 463.924897 
L 731.394503 111.389279 
L 731.567795 112.770913 
L 731.914379 411.709047 
L 732.087671 342.73288 
L 732.260963 452.000095 
L 732.434255 341.347827 
L 732.607547 422.883281 
L 732.780839 448.158018 
L 732.95413 450.060903 
L 733.127422 401.959834 
L 733.300714 448.92797 
L 733.474006 416.837428 
L 733.647298 213.619699 
L 733.993882 458.472421 
L 734.167174 442.954885 
L 734.340466 394.166514 
L 734.513758 436.469625 
L 734.68705 390.513866 
L 734.860342 283.671777 
L 735.206925 455.326956 
L 735.380217 431.710717 
L 735.553509 318.45415 
L 735.726801 395.656137 
L 735.900093 343.469876 
L 736.073385 342.936911 
L 736.246677 427.07424 
L 736.419969 436.681141 
L 736.766553 344.823033 
L 736.939845 415.904444 
L 737.113137 325.679465 
L 737.286429 322.72435 
L 737.45972 366.073625 
L 737.633012 443.509578 
L 737.806304 144.054495 
L 737.979596 156.288073 
L 738.152888 227.412079 
L 738.32618 437.98727 
L 738.499472 404.828036 
L 738.846056 460.39872 
L 739.019348 446.56509 
L 739.19264 445.614613 
L 739.365932 431.059363 
L 739.539224 328.479039 
L 739.885807 425.038433 
L 740.232391 457.063267 
L 740.405683 463.390009 
L 740.578975 462.365278 
L 740.752267 462.509194 
L 740.925559 456.256115 
L 741.098851 379.029014 
L 741.445435 429.154717 
L 741.618727 295.744339 
L 741.792019 315.715559 
L 741.965311 450.732709 
L 742.138602 355.993248 
L 742.311894 435.062518 
L 742.485186 433.584875 
L 742.658478 338.718914 
L 742.83177 333.039008 
L 743.005062 423.199631 
L 743.178354 452.470651 
L 743.351646 456.093387 
L 743.524938 456.93847 
L 743.69823 453.030461 
L 743.871522 458.477113 
L 744.044814 426.954154 
L 744.218106 429.381774 
L 744.391398 421.373971 
L 744.564689 401.065081 
L 744.737981 451.137861 
L 745.084565 460.242892 
L 745.257857 144.413253 
L 745.431149 153.908646 
L 745.604441 228.675763 
L 745.777733 420.197203 
L 745.951025 404.18949 
L 746.124317 448.102587 
L 746.297609 435.899485 
L 746.470901 457.183965 
L 746.817484 460.901673 
L 746.990776 457.889023 
L 747.164068 462.347163 
L 747.33736 455.410598 
L 747.683944 461.346849 
L 747.857236 461.425798 
L 748.20382 463.659796 
L 748.550404 113.343996 
L 748.896988 393.697519 
L 749.07028 281.410606 
L 749.243571 432.479803 
L 749.416863 459.711439 
L 749.763447 429.910037 
L 749.936739 444.553053 
L 750.110031 412.311452 
L 750.283323 350.80539 
L 750.456615 460.176668 
L 750.629907 397.03049 
L 750.976491 451.529267 
L 751.149783 369.776727 
L 751.496366 454.155659 
L 751.669658 349.986646 
L 751.84295 427.553732 
L 752.016242 448.739961 
L 752.189534 373.638007 
L 752.362826 435.832287 
L 752.536118 450.955916 
L 752.70941 195.736319 
L 752.882702 384.609508 
L 753.055994 379.780871 
L 753.229286 348.884691 
L 753.402578 437.390442 
L 753.57587 447.044965 
L 753.749161 375.817214 
L 753.922453 430.729254 
L 754.615621 241.632906 
L 754.788913 438.717696 
L 754.962205 404.314176 
L 755.135497 277.88701 
L 755.308789 393.548352 
L 755.482081 422.859721 
L 755.655373 422.233893 
L 755.828665 448.593661 
L 756.001957 402.296068 
L 756.175248 401.687392 
L 756.34854 447.669913 
L 756.521832 387.228815 
L 756.695124 425.617552 
L 756.868416 435.296238 
L 757.041708 226.010468 
L 757.215 167.147768 
L 757.388292 368.29945 
L 757.908168 445.582693 
L 758.08146 408.872963 
L 758.428043 443.370894 
L 758.601335 421.630853 
L 758.774627 419.685517 
L 758.947919 452.643195 
L 759.121211 434.897019 
L 759.294503 132.998037 
L 759.467795 377.406051 
L 759.641087 368.957577 
L 759.814379 376.001733 
L 759.987671 376.03544 
L 760.160963 430.881935 
L 760.334255 421.111361 
L 760.507547 459.543834 
L 760.680839 456.992151 
L 760.85413 458.479105 
L 761.027422 458.337912 
L 761.200714 225.136422 
L 761.547298 404.345666 
L 761.72059 451.127004 
L 761.893882 460.956246 
L 762.240466 463.965498 
L 762.413758 464.141548 
L 763.280217 464.151975 
L 763.453509 446.854282 
L 763.626801 458.422404 
L 763.800093 462.267087 
L 763.973385 460.507416 
L 764.146677 453.213752 
L 764.319969 464.154906 
L 764.493261 435.312993 
L 764.666553 460.757761 
L 764.839845 458.318241 
L 765.013137 462.641075 
L 765.186429 462.493403 
L 765.35972 464.078449 
L 765.533012 109.393542 
L 765.706304 164.366352 
L 765.879596 177.290938 
L 766.052888 441.658348 
L 766.22618 428.311479 
L 766.572764 452.502726 
L 766.746056 443.337713 
L 766.919348 459.180451 
L 767.09264 445.500325 
L 767.265932 362.287415 
L 767.439224 441.711036 
L 767.612516 430.671581 
L 767.785807 284.393715 
L 768.132391 456.369323 
L 768.478975 372.909061 
L 768.652267 427.287767 
L 768.825559 220.285921 
L 768.998851 235.579489 
L 769.172143 391.947138 
L 769.345435 440.085944 
L 769.518727 390.579526 
L 769.692019 297.40184 
L 769.865311 318.642552 
L 770.038602 296.736019 
L 770.211894 318.819719 
L 770.385186 431.840636 
L 770.558478 433.217035 
L 770.905062 313.246875 
L 771.078354 424.006045 
L 771.251646 364.958581 
L 771.424938 368.355858 
L 771.59823 447.667768 
L 771.771522 443.774843 
L 771.944814 166.652481 
L 772.118106 155.052981 
L 772.291398 354.508213 
L 772.464689 261.466745 
L 772.637981 459.870262 
L 772.811273 408.214919 
L 773.157857 452.662232 
L 773.331149 455.370108 
L 773.504441 450.339988 
L 773.677733 388.750696 
L 774.024317 447.614117 
L 774.197609 457.878736 
L 774.370901 454.233685 
L 774.544193 454.678389 
L 774.717484 453.392108 
L 774.890776 458.086122 
L 775.064068 454.719869 
L 775.410652 365.371638 
L 775.583944 418.604548 
L 775.757236 265.916705 
L 776.10382 449.633792 
L 776.450404 331.36674 
L 776.623696 377.359847 
L 776.796988 358.847618 
L 776.97028 283.608494 
L 777.143571 424.606413 
L 777.316863 455.952892 
L 777.490155 457.151073 
L 777.663447 460.241462 
L 777.836739 460.380776 
L 778.010031 460.362249 
L 778.183323 398.785433 
L 778.356615 428.460722 
L 778.529907 422.7928 
L 778.703199 407.076436 
L 778.876491 451.655835 
L 779.223075 456.205999 
L 779.396366 138.084541 
L 779.569658 164.997533 
L 779.74295 243.898245 
L 779.916242 405.388684 
L 780.089534 449.807438 
L 780.262826 434.72185 
L 780.436118 443.60382 
L 780.60941 459.292557 
L 780.782702 460.488738 
L 781.129286 458.157506 
L 781.302578 463.002749 
L 781.47587 457.959768 
L 781.822453 461.429929 
L 781.995745 462.178074 
L 782.169037 460.649802 
L 782.342329 463.805416 
L 782.515621 198.794224 
L 782.688913 104.400769 
L 782.862205 189.893643 
L 783.035497 362.234533 
L 783.208789 292.717783 
L 783.382081 457.069375 
L 783.555373 423.447636 
L 783.728665 459.505237 
L 783.901957 440.840063 
L 784.075248 434.240302 
L 784.24854 442.499066 
L 784.421832 341.746893 
L 784.595124 457.390559 
L 784.768416 373.545204 
L 784.941708 370.615593 
L 785.115 435.580587 
L 785.288292 344.430397 
L 785.461584 342.658668 
L 785.634876 458.019232 
L 785.808168 369.267761 
L 785.98146 390.570472 
L 786.154752 448.825533 
L 786.328043 351.914894 
L 786.501335 426.569397 
L 786.674627 425.774067 
L 786.847919 337.430438 
L 787.021211 382.138766 
L 787.194503 373.631183 
L 787.367795 380.709325 
L 787.541087 445.817955 
L 787.714379 433.273437 
L 787.887671 397.939089 
L 788.060963 452.159644 
L 788.234255 378.552762 
L 788.580839 442.253796 
L 788.75413 434.270057 
L 788.927422 415.611517 
L 789.100714 415.983294 
L 789.274006 375.557785 
L 789.447298 435.008318 
L 789.62059 442.678429 
L 789.793882 401.384229 
L 789.967174 443.339158 
L 790.313758 336.995727 
L 790.48705 441.386854 
L 790.660342 412.588548 
L 790.833634 348.264718 
L 791.006925 371.273511 
L 791.180217 191.023924 
L 791.526801 288.965184 
L 791.700093 424.321858 
L 791.873385 403.502727 
L 792.046677 448.998727 
L 792.219969 453.796681 
L 792.393261 453.272073 
L 792.566553 453.317277 
L 792.739845 410.619221 
L 792.913137 415.496524 
L 793.086429 456.437795 
L 793.25972 323.626989 
L 793.433012 410.470009 
L 793.606304 434.655837 
L 793.779596 326.721975 
L 793.952888 429.31439 
L 794.12618 450.007179 
L 794.299472 414.134297 
L 794.472764 457.692982 
L 794.646056 461.323313 
L 794.819348 460.841472 
L 794.99264 454.964727 
L 795.165932 463.30825 
L 795.339224 198.298378 
L 795.512516 384.594221 
L 796.032391 458.834784 
L 796.205683 459.017507 
L 796.552267 462.339803 
L 796.898851 463.718391 
L 797.072143 463.882807 
L 797.245435 463.806908 
L 797.418727 460.722663 
L 797.592019 452.444444 
L 797.938602 460.891189 
L 798.111894 456.755084 
L 798.458478 463.175675 
L 798.63177 455.040318 
L 798.805062 456.061882 
L 798.978354 458.204426 
L 799.151646 461.824655 
L 799.324938 462.27455 
L 799.49823 459.643621 
L 799.671522 141.684599 
L 799.844814 209.520542 
L 800.018106 364.191722 
L 800.191398 312.598043 
L 800.364689 451.031369 
L 800.537981 362.195356 
L 800.711273 449.206734 
L 800.884565 458.627897 
L 801.057857 455.954284 
L 801.231149 425.948458 
L 801.404441 418.100391 
L 801.577733 455.561109 
L 801.751025 359.863512 
L 801.924317 358.987152 
L 802.097609 453.687154 
L 802.270901 447.948788 
L 802.444193 322.726345 
L 802.790776 424.80567 
L 802.964068 216.693768 
L 803.13736 421.497875 
L 803.310652 453.774045 
L 803.483944 399.217926 
L 803.657236 404.739039 
L 803.830528 261.518312 
L 804.00382 338.48793 
L 804.177112 284.173431 
L 804.523696 442.943091 
L 804.696988 384.767056 
L 804.87028 384.295945 
L 805.043571 369.330466 
L 805.216863 381.988855 
L 805.390155 362.335507 
L 805.563447 440.535101 
L 805.736739 457.036272 
L 805.910031 382.627477 
L 806.083323 200.016888 
L 806.256615 248.435124 
L 806.429907 378.669443 
L 806.603199 416.047711 
L 806.776491 426.42577 
L 806.949783 459.984131 
L 807.123075 392.860692 
L 807.296366 456.05998 
L 807.469658 452.790472 
L 807.816242 407.940653 
L 807.989534 454.116819 
L 808.162826 433.003736 
L 808.336118 457.403416 
L 808.50941 446.96119 
L 808.682702 457.237299 
L 808.855994 455.13042 
L 809.029286 459.717357 
L 809.37587 431.131716 
L 809.549161 460.661051 
L 809.722453 408.99507 
L 809.895745 316.260596 
L 810.069037 430.595851 
L 810.242329 428.763364 
L 810.415621 400.071761 
L 810.588913 441.206592 
L 810.762205 441.037508 
L 810.935497 338.973076 
L 811.108789 368.678235 
L 811.282081 448.525994 
L 811.628665 458.817297 
L 811.801957 459.924551 
L 811.975248 460.242362 
L 812.14854 462.708371 
L 812.321832 367.513873 
L 812.668416 415.405977 
L 812.841708 414.713546 
L 813.015 452.399763 
L 813.188292 456.382374 
L 813.361584 452.084879 
L 813.534876 169.316378 
L 813.708168 163.548981 
L 813.88146 357.058416 
L 814.054752 381.114122 
L 814.228043 450.813841 
L 814.574627 446.353448 
L 814.747919 459.004506 
L 814.921211 460.084908 
L 815.094503 459.843082 
L 815.267795 457.437991 
L 815.441087 463.663402 
L 815.614379 459.785244 
L 815.787671 459.095644 
L 815.960963 453.628674 
L 816.480839 463.877498 
L 816.65413 147.528215 
L 816.827422 130.695008 
L 817.000714 162.241482 
L 817.174006 217.711282 
L 817.347298 378.528536 
L 817.867174 459.32994 
L 818.040466 459.203688 
L 818.213758 429.336678 
L 818.38705 452.347755 
L 818.560342 409.028567 
L 818.733634 401.320469 
L 819.080217 282.573329 
L 819.426801 398.00267 
L 819.600093 289.045763 
L 819.773385 444.84225 
L 819.946677 445.858866 
L 820.119969 364.006313 
L 820.293261 424.886756 
L 820.466553 423.214111 
L 820.639845 355.508763 
L 820.813137 400.027698 
L 821.15972 299.069622 
L 821.506304 406.013886 
L 821.679596 395.628657 
L 821.852888 456.84209 
L 822.02618 383.123653 
L 822.372764 441.596146 
L 822.546056 353.77095 
L 822.89264 452.670833 
L 823.065932 366.620174 
L 823.239224 442.823981 
L 823.412516 437.128239 
L 823.585807 385.862772 
L 823.759099 452.352289 
L 823.932391 435.811634 
L 824.105683 391.774691 
L 824.278975 458.005858 
L 824.452267 381.541228 
L 824.625559 371.792574 
L 824.798851 452.980195 
L 824.972143 427.517322 
L 825.318727 137.985397 
L 825.665311 315.505542 
L 825.838602 277.75095 
L 826.011894 457.129008 
L 826.358478 441.68141 
L 826.53177 452.695642 
L 826.705062 433.165274 
L 826.878354 396.29113 
L 827.051646 414.088181 
L 827.224938 446.112 
L 827.39823 314.547537 
L 827.744814 440.881399 
L 827.918106 346.499088 
L 828.091398 329.77514 
L 828.264689 444.513246 
L 828.437981 449.725465 
L 828.611273 458.332605 
L 828.784565 458.351773 
L 828.957857 458.123851 
L 829.131149 459.021339 
L 829.304441 456.912906 
L 829.477733 292.323291 
L 829.651025 401.19572 
L 829.824317 404.763075 
L 829.997609 452.206821 
L 830.170901 458.975715 
L 830.344193 456.584226 
L 830.864068 463.292263 
L 831.03736 463.423415 
L 831.210652 463.714735 
L 831.383944 463.560276 
L 831.557236 451.675769 
L 831.730528 459.59147 
L 831.90382 456.41708 
L 832.077112 458.527027 
L 832.250404 453.236239 
L 832.423696 463.347226 
L 832.596988 461.965095 
L 832.77028 452.28065 
L 832.943571 453.448492 
L 833.290155 459.377198 
L 833.463447 462.6433 
L 833.636739 427.815563 
L 833.810031 182.477399 
L 834.156615 392.262652 
L 834.329907 400.243109 
L 834.676491 436.460549 
L 834.849783 380.654257 
L 835.023075 449.055101 
L 835.369658 418.225347 
L 835.54295 415.504771 
L 835.716242 454.306919 
L 835.889534 375.139676 
L 836.062826 395.789172 
L 836.236118 447.037426 
L 836.40941 423.812167 
L 836.582702 326.724186 
L 836.755994 420.656693 
L 836.929286 409.311372 
L 837.102578 333.47072 
L 837.449161 441.562035 
L 837.622453 378.373396 
L 837.795745 381.703057 
L 837.969037 195.831524 
L 838.142329 356.380026 
L 838.315621 270.738804 
L 838.488913 397.091734 
L 838.662205 439.904927 
L 838.835497 389.807228 
L 839.008789 383.514529 
L 839.182081 402.847598 
L 839.355373 308.288551 
L 839.528665 334.213218 
L 839.701957 427.189182 
L 839.875248 447.165047 
L 840.221832 197.565283 
L 840.395124 213.335458 
L 840.568416 189.080059 
L 840.741708 429.162494 
L 840.915 425.560835 
L 841.088292 457.50304 
L 841.261584 458.628983 
L 841.434876 449.83048 
L 841.608168 451.53627 
L 841.78146 409.928823 
L 841.954752 406.629106 
L 842.128043 455.067215 
L 842.301335 446.389676 
L 842.647919 457.186696 
L 842.821211 452.178621 
L 842.994503 435.206653 
L 843.167795 459.046707 
L 843.341087 429.616993 
L 843.514379 380.572968 
L 843.687671 433.893464 
L 844.034255 269.444241 
L 844.207547 446.180768 
L 844.380839 428.414296 
L 844.55413 423.841854 
L 844.727422 401.599087 
L 844.900714 422.923945 
L 845.074006 280.332706 
L 845.42059 449.878907 
L 845.767174 461.84314 
L 846.113758 459.077097 
L 846.28705 463.974121 
L 846.460342 337.097196 
L 846.633634 364.609468 
L 846.806925 411.903189 
L 846.980217 427.103086 
L 847.153509 457.421573 
L 847.326801 459.441708 
L 847.500093 414.134183 
L 847.673385 221.588109 
L 847.846677 256.618685 
L 848.193261 414.236233 
L 848.539845 456.53069 
L 848.713137 452.699526 
L 848.886429 459.976499 
L 849.05972 460.652554 
L 849.233012 459.914211 
L 849.406304 456.285241 
L 849.579596 463.380804 
L 850.099472 453.678367 
L 850.272764 460.34717 
L 850.446056 456.450803 
L 850.619348 463.483237 
L 850.79264 152.060824 
L 850.965932 141.637581 
L 851.139224 168.913931 
L 851.312516 401.130702 
L 851.485807 427.592718 
L 851.659099 412.632421 
L 851.832391 456.995115 
L 852.005683 447.138168 
L 852.178975 460.033442 
L 852.352267 420.819962 
L 852.525559 450.405307 
L 852.698851 445.221556 
L 852.872143 381.615325 
L 853.218727 353.890222 
L 853.392019 362.917942 
L 853.565311 410.028595 
L 853.738602 400.542968 
L 853.911894 429.545056 
L 854.085186 437.600692 
L 854.258478 361.504151 
L 854.605062 436.738509 
L 854.778354 368.103723 
L 854.951646 349.789731 
L 855.124938 407.190015 
L 855.29823 320.9383 
L 855.644814 422.375067 
L 855.818106 378.616725 
L 855.991398 456.797854 
L 856.164689 386.268973 
L 856.337981 371.763575 
L 856.511273 450.02103 
L 856.684565 394.961952 
L 857.031149 459.008292 
L 857.204441 358.291322 
L 857.551025 445.209641 
L 857.724317 380.934972 
L 857.897609 440.044492 
L 858.070901 451.496471 
L 858.244193 381.76751 
L 858.417484 440.615165 
L 858.590776 413.414071 
L 858.764068 404.823613 
L 858.93736 433.698179 
L 859.110652 415.258751 
L 859.283944 186.557215 
L 859.457236 124.546819 
L 859.80382 299.967508 
L 859.977112 344.556417 
L 860.150404 454.242793 
L 860.323696 456.39498 
L 860.496988 448.692284 
L 860.843571 423.566226 
L 861.016863 442.267394 
L 861.190155 399.078207 
L 861.363447 435.871306 
L 861.536739 422.734616 
L 861.710031 347.229121 
L 861.883323 421.585989 
L 862.056615 412.575409 
L 862.229907 367.413528 
L 862.403199 457.75458 
L 862.576491 439.651498 
L 862.749783 443.540563 
L 862.923075 428.935115 
L 863.269658 448.325653 
L 863.44295 442.266457 
L 863.616242 364.335615 
L 863.789534 422.922509 
L 863.962826 402.086674 
L 864.136118 451.388607 
L 864.30941 458.588141 
L 864.655994 462.921503 
L 864.829286 463.034575 
L 865.002578 463.648216 
L 865.349161 463.815232 
L 865.522453 463.735849 
L 865.695745 446.868945 
L 865.869037 449.439779 
L 866.042329 419.391373 
L 866.215621 437.762865 
L 866.388913 435.771666 
L 866.562205 462.646904 
L 866.735497 459.953769 
L 866.908789 459.762913 
L 867.082081 451.625911 
L 867.428665 461.342131 
L 867.601957 462.942868 
L 867.94854 197.464182 
L 868.121832 274.260317 
L 868.295124 224.624132 
L 868.468416 401.576805 
L 868.641708 388.359451 
L 868.815 462.882035 
L 868.988292 409.393685 
L 869.161584 455.614338 
L 869.508168 404.590228 
L 869.68146 451.614189 
L 869.854752 434.357313 
L 870.028043 323.290799 
L 870.201335 428.201115 
L 870.374627 430.863951 
L 870.547919 321.904514 
L 870.721211 318.873091 
L 870.894503 453.295754 
L 871.067795 373.035983 
L 871.414379 438.955865 
L 871.587671 388.958666 
L 871.760963 281.859435 
L 871.934255 441.783137 
L 872.107547 198.764616 
L 872.627422 436.239629 
L 872.974006 367.86284 
L 873.147298 426.012599 
L 873.493882 396.08349 
L 873.840466 457.982994 
L 874.013758 409.363727 
L 874.533634 106.807262 
L 874.706925 352.098097 
L 874.880217 270.306013 
L 875.053509 458.859541 
L 875.226801 399.457837 
L 875.400093 451.739768 
L 875.573385 455.019307 
L 875.919969 410.758806 
L 876.093261 447.777199 
L 876.266553 447.927468 
L 876.439845 435.970065 
L 876.613137 453.328182 
L 876.786429 458.904645 
L 877.133012 457.280551 
L 877.306304 460.547088 
L 877.479596 366.950664 
L 877.652888 456.282322 
L 877.82618 438.071438 
L 877.999472 303.215174 
L 878.346056 451.963019 
L 878.519348 331.499597 
L 878.69264 424.768227 
L 878.865932 453.159612 
L 879.039224 405.401976 
L 879.212516 309.189716 
L 879.385807 448.940589 
L 879.559099 437.932135 
L 879.905683 460.265875 
L 880.078975 460.320108 
L 880.252267 456.680438 
L 880.425559 463.633407 
L 880.598851 269.688174 
L 881.118727 438.723264 
L 881.292019 458.005474 
L 881.465311 456.730776 
L 881.811894 181.2572 
L 881.985186 224.350158 
L 882.505062 446.789774 
L 882.678354 455.484951 
L 882.851646 445.994827 
L 883.024938 458.071593 
L 883.19823 459.062888 
L 883.371522 453.17385 
L 883.544814 461.053629 
L 883.718106 463.207417 
L 883.891398 446.597758 
L 884.064689 454.267327 
L 884.237981 452.596777 
L 884.411273 461.107924 
L 884.584565 461.050664 
L 884.757857 463.910362 
L 884.931149 84.1464 
L 885.104441 213.747841 
L 885.277733 180.817292 
L 885.451025 441.208118 
L 885.624317 341.117643 
L 885.797609 410.348379 
L 886.144193 426.080927 
L 886.317484 451.790235 
L 886.664068 388.046948 
L 886.83736 456.973765 
L 887.183944 318.92847 
L 887.357236 395.808538 
L 887.530528 274.835267 
L 887.70382 260.039262 
L 887.877112 392.633209 
L 888.050404 371.802568 
L 888.223696 406.35444 
L 888.396988 417.839747 
L 888.57028 313.486601 
L 888.743571 409.107436 
L 888.916863 426.792906 
L 889.090155 290.250026 
L 889.263447 357.22984 
L 889.436739 365.236443 
L 889.610031 365.728915 
L 889.783323 446.745192 
L 889.956615 399.428743 
L 890.129907 414.634041 
L 890.303199 415.531991 
L 890.476491 442.281736 
L 890.649783 438.31904 
L 890.823075 444.507171 
L 890.996366 377.678767 
L 891.169658 447.480377 
L 891.34295 447.445317 
L 891.516242 396.612452 
L 891.689534 450.09983 
L 892.036118 393.744733 
L 892.20941 458.486476 
L 892.555994 334.841985 
L 892.729286 443.347175 
L 892.902578 371.195538 
L 893.07587 375.964914 
L 893.249161 461.481819 
L 893.422453 171.290232 
L 893.595745 106.643387 
L 893.942329 403.029805 
L 894.115621 395.760573 
L 894.288913 414.26898 
L 894.462205 459.092507 
L 894.635497 456.766664 
L 894.982081 424.282458 
L 895.155373 432.574357 
L 895.328665 455.842786 
L 895.501957 383.067245 
L 895.675248 358.399488 
L 895.84854 432.498944 
L 896.021832 401.771776 
L 896.195124 311.446579 
L 896.541708 446.644434 
L 896.715 450.819426 
L 896.888292 458.854552 
L 897.234876 452.680334 
L 897.408168 449.951485 
L 897.58146 406.887291 
L 897.928043 428.287119 
L 898.101335 396.783196 
L 898.274627 451.974625 
L 898.621211 462.181618 
L 898.794503 461.667528 
L 899.141087 463.754408 
L 899.314379 461.572031 
L 899.487671 461.465404 
L 899.660963 462.532967 
L 899.834255 438.372539 
L 900.007547 458.777909 
L 900.180839 458.897018 
L 900.35413 452.804943 
L 900.527422 433.455701 
L 900.700714 459.432418 
L 900.874006 458.689401 
L 901.047298 449.19015 
L 901.22059 458.698725 
L 901.393882 435.306254 
L 901.567174 463.406802 
L 901.740466 460.71875 
L 901.913758 459.806364 
L 902.08705 463.033523 
L 902.260342 462.920189 
L 902.433634 463.860223 
L 902.606925 463.654505 
L 902.953509 463.924272 
L 903.300093 463.965468 
L 903.993261 464.013775 
L 905.72618 464.140345 
L 911.791398 464.162321 
L 924.615 464.1624 
L 924.615 464.1624 
" clip-path="url(#p25722862f8)" style="fill: none; stroke: #1f77b4; stroke-width: 1.5; stroke-linecap: square"/>
   </g>
   <g id="patch_3">
    <path d="M 133.65 483.1632 
L 133.65 65.1456 
" style="fill: none; stroke: #000000; stroke-width: 0.8; stroke-linejoin: miter; stroke-linecap: square"/>
   </g>
   <g id="patch_4">
    <path d="M 962.28 483.1632 
L 962.28 65.1456 
" style="fill: none; stroke: #000000; stroke-width: 0.8; stroke-linejoin: miter; stroke-linecap: square"/>
   </g>
   <g id="patch_5">
    <path d="M 133.65 483.1632 
L 962.28 483.1632 
" style="fill: none; stroke: #000000; stroke-width: 0.8; stroke-linejoin: miter; stroke-linecap: square"/>
   </g>
   <g id="patch_6">
    <path d="M 133.65 65.1456 
L 962.28 65.1456 
" style="fill: none; stroke: #000000; stroke-width: 0.8; stroke-linejoin: miter; stroke-linecap: square"/>
   </g>
  </g>
 </g>
 <defs>
  <clipPath id="p25722862f8">
   <rect x="133.65" y="65.1456" width="828.63" height="418.0176"/>
  </clipPath>
 </defs>
</svg>
